<?xml version = "1.0" standalone = "no"?>
<!DOCTYPE svg PUBLIC "-//W3C//DTD SVG 1.1//EN" "http://www.w3.org/Graphics/SVG/1.1/DTD/svg11.dtd">

<svg xmlns="http://www.w3.org/2000/svg" width="1177" height="378" style="box-sizing: inherit; font-family: Calibri;">
  <rect id="backgroundRect" width="100%" height="100%" x="0" y="0" fill="rgb(255,255,255)" fill-opacity="1" visibility="visible" style="box-sizing: inherit; fill: rgb(255, 255, 255); fill-opacity: 1;" />
  <defs style="box-sizing: inherit;" />
  <clipPath id="chartRect847130" style="box-sizing: inherit;">
    <rect x="-1" y="-1" width="1179" height="380" style="box-sizing: inherit;" />
  </clipPath>
  <g class="wj-header" style="box-sizing: inherit; background: rgb(238, 238, 238); color: rgb(68, 68, 68); font-weight: 700;" clip-path="url(#chartRect847130)">
    <text x="388.9" y="23.0" fill="rgb(38,41,27)" class="wj-title" fill-opacity="1" style="box-sizing: inherit; cursor: default; font-size: 16pt; font-family: 'Segoe UI Semibold'; font-style: normal; font-weight: normal; fill: rgb(38, 41, 27); fill-opacity: 1;">Dumoine Tote Road Trail Elevation Profile</text>
  </g>
  <g class="wj-footer" style="box-sizing: inherit;" clip-path="url(#chartRect847130)">
    <text x="241.3" y="374.0" fill="rgb(58,66,23)" class="wj-title" fill-opacity="1" style="box-sizing: inherit; cursor: default; font-size: 12pt; font-family: 'Segoe UI'; font-style: normal; font-weight: normal; fill: rgb(58, 66, 23); fill-opacity: 1;">Variations in elevation along the trail starting at Trailhead North (KM 0) to Trailhead South (KM 26).</text>
  </g>
  <clipPath id="legRect862864" style="box-sizing: inherit;">
    <rect x="1176" y="192" width="2" height="2" style="box-sizing: inherit;" />
  </clipPath>
  <g class="wj-legend" style="box-sizing: inherit;" clip-path="url(#legRect862864)" />
  <g class="wj-plot-area" style="box-sizing: inherit;">
    <rect fill="#000000" stroke-width="2" x="68.6" y="45.0" width="1101.2" height="260.0" fill-opacity="0" style="box-sizing: inherit;" />
  </g>
  <g class="wj-axis-x" style="box-sizing: inherit;" clip-path="url(#chartRect847130)">
    <text x="65.0" y="328.0" fill="rgb(38,41,27)" class="wj-label" fill-opacity="1" style="box-sizing: inherit; cursor: default; font-size: 10pt; font-family: 'Segoe UI'; font-style: normal; font-weight: normal; fill: rgb(38, 41, 27); fill-opacity: 1;">0</text>
    <line stroke="#666" stroke-width="1" x1="68.6" x2="68.6" y1="305.0" y2="309.0" class="wj-tick" style="box-sizing: inherit; stroke: rgb(170, 170, 170); stroke-width: 1px;" />
    <text x="107.1" y="328.0" fill="rgb(38,41,27)" class="wj-label" fill-opacity="1" style="box-sizing: inherit; cursor: default; font-size: 10pt; font-family: 'Segoe UI'; font-style: normal; font-weight: normal; fill: rgb(38, 41, 27); fill-opacity: 1;">1</text>
    <line stroke="#666" stroke-width="1" x1="110.7" x2="110.7" y1="305.0" y2="309.0" class="wj-tick" style="box-sizing: inherit; stroke: rgb(170, 170, 170); stroke-width: 1px;" />
    <text x="149.1" y="328.0" fill="rgb(38,41,27)" class="wj-label" fill-opacity="1" style="box-sizing: inherit; cursor: default; font-size: 10pt; font-family: 'Segoe UI'; font-style: normal; font-weight: normal; fill: rgb(38, 41, 27); fill-opacity: 1;">2</text>
    <line stroke="#666" stroke-width="1" x1="152.7" x2="152.7" y1="305.0" y2="309.0" class="wj-tick" style="box-sizing: inherit; stroke: rgb(170, 170, 170); stroke-width: 1px;" />
    <text x="191.1" y="328.0" fill="rgb(38,41,27)" class="wj-label" fill-opacity="1" style="box-sizing: inherit; cursor: default; font-size: 10pt; font-family: 'Segoe UI'; font-style: normal; font-weight: normal; fill: rgb(38, 41, 27); fill-opacity: 1;">3</text>
    <line stroke="#666" stroke-width="1" x1="194.7" x2="194.7" y1="305.0" y2="309.0" class="wj-tick" style="box-sizing: inherit; stroke: rgb(170, 170, 170); stroke-width: 1px;" />
    <text x="232.6" y="328.0" fill="rgb(38,41,27)" class="wj-label" fill-opacity="1" style="box-sizing: inherit; cursor: default; font-size: 10pt; font-family: 'Segoe UI'; font-style: normal; font-weight: normal; fill: rgb(38, 41, 27); fill-opacity: 1;">4</text>
    <line stroke="#666" stroke-width="1" x1="236.7" x2="236.7" y1="305.0" y2="309.0" class="wj-tick" style="box-sizing: inherit; stroke: rgb(170, 170, 170); stroke-width: 1px;" />
    <text x="275.2" y="328.0" fill="rgb(38,41,27)" class="wj-label" fill-opacity="1" style="box-sizing: inherit; cursor: default; font-size: 10pt; font-family: 'Segoe UI'; font-style: normal; font-weight: normal; fill: rgb(38, 41, 27); fill-opacity: 1;">5</text>
    <line stroke="#666" stroke-width="1" x1="278.8" x2="278.8" y1="305.0" y2="309.0" class="wj-tick" style="box-sizing: inherit; stroke: rgb(170, 170, 170); stroke-width: 1px;" />
    <text x="317.2" y="328.0" fill="rgb(38,41,27)" class="wj-label" fill-opacity="1" style="box-sizing: inherit; cursor: default; font-size: 10pt; font-family: 'Segoe UI'; font-style: normal; font-weight: normal; fill: rgb(38, 41, 27); fill-opacity: 1;">6</text>
    <line stroke="#666" stroke-width="1" x1="320.8" x2="320.8" y1="305.0" y2="309.0" class="wj-tick" style="box-sizing: inherit; stroke: rgb(170, 170, 170); stroke-width: 1px;" />
    <text x="359.2" y="328.0" fill="rgb(38,41,27)" class="wj-label" fill-opacity="1" style="box-sizing: inherit; cursor: default; font-size: 10pt; font-family: 'Segoe UI'; font-style: normal; font-weight: normal; fill: rgb(38, 41, 27); fill-opacity: 1;">7</text>
    <line stroke="#666" stroke-width="1" x1="362.8" x2="362.8" y1="305.0" y2="309.0" class="wj-tick" style="box-sizing: inherit; stroke: rgb(170, 170, 170); stroke-width: 1px;" />
    <text x="401.2" y="328.0" fill="rgb(38,41,27)" class="wj-label" fill-opacity="1" style="box-sizing: inherit; cursor: default; font-size: 10pt; font-family: 'Segoe UI'; font-style: normal; font-weight: normal; fill: rgb(38, 41, 27); fill-opacity: 1;">8</text>
    <line stroke="#666" stroke-width="1" x1="404.8" x2="404.8" y1="305.0" y2="309.0" class="wj-tick" style="box-sizing: inherit; stroke: rgb(170, 170, 170); stroke-width: 1px;" />
    <text x="443.3" y="328.0" fill="rgb(38,41,27)" class="wj-label" fill-opacity="1" style="box-sizing: inherit; cursor: default; font-size: 10pt; font-family: 'Segoe UI'; font-style: normal; font-weight: normal; fill: rgb(38, 41, 27); fill-opacity: 1;">9</text>
    <line stroke="#666" stroke-width="1" x1="446.9" x2="446.9" y1="305.0" y2="309.0" class="wj-tick" style="box-sizing: inherit; stroke: rgb(170, 170, 170); stroke-width: 1px;" />
    <text x="481.7" y="328.0" fill="rgb(38,41,27)" class="wj-label" fill-opacity="1" style="box-sizing: inherit; cursor: default; font-size: 10pt; font-family: 'Segoe UI'; font-style: normal; font-weight: normal; fill: rgb(38, 41, 27); fill-opacity: 1;">10</text>
    <line stroke="#666" stroke-width="1" x1="488.9" x2="488.9" y1="305.0" y2="309.0" class="wj-tick" style="box-sizing: inherit; stroke: rgb(170, 170, 170); stroke-width: 1px;" />
    <text x="523.7" y="328.0" fill="rgb(38,41,27)" class="wj-label" fill-opacity="1" style="box-sizing: inherit; cursor: default; font-size: 10pt; font-family: 'Segoe UI'; font-style: normal; font-weight: normal; fill: rgb(38, 41, 27); fill-opacity: 1;">11</text>
    <line stroke="#666" stroke-width="1" x1="530.9" x2="530.9" y1="305.0" y2="309.0" class="wj-tick" style="box-sizing: inherit; stroke: rgb(170, 170, 170); stroke-width: 1px;" />
    <text x="565.7" y="328.0" fill="rgb(38,41,27)" class="wj-label" fill-opacity="1" style="box-sizing: inherit; cursor: default; font-size: 10pt; font-family: 'Segoe UI'; font-style: normal; font-weight: normal; fill: rgb(38, 41, 27); fill-opacity: 1;">12</text>
    <line stroke="#666" stroke-width="1" x1="572.9" x2="572.9" y1="305.0" y2="309.0" class="wj-tick" style="box-sizing: inherit; stroke: rgb(170, 170, 170); stroke-width: 1px;" />
    <text x="607.8" y="328.0" fill="rgb(38,41,27)" class="wj-label" fill-opacity="1" style="box-sizing: inherit; cursor: default; font-size: 10pt; font-family: 'Segoe UI'; font-style: normal; font-weight: normal; fill: rgb(38, 41, 27); fill-opacity: 1;">13</text>
    <line stroke="#666" stroke-width="1" x1="615.0" x2="615.0" y1="305.0" y2="309.0" class="wj-tick" style="box-sizing: inherit; stroke: rgb(170, 170, 170); stroke-width: 1px;" />
    <text x="649.8" y="328.0" fill="rgb(38,41,27)" class="wj-label" fill-opacity="1" style="box-sizing: inherit; cursor: default; font-size: 10pt; font-family: 'Segoe UI'; font-style: normal; font-weight: normal; fill: rgb(38, 41, 27); fill-opacity: 1;">14</text>
    <line stroke="#666" stroke-width="1" x1="657.0" x2="657.0" y1="305.0" y2="309.0" class="wj-tick" style="box-sizing: inherit; stroke: rgb(170, 170, 170); stroke-width: 1px;" />
    <text x="691.8" y="328.0" fill="rgb(38,41,27)" class="wj-label" fill-opacity="1" style="box-sizing: inherit; cursor: default; font-size: 10pt; font-family: 'Segoe UI'; font-style: normal; font-weight: normal; fill: rgb(38, 41, 27); fill-opacity: 1;">15</text>
    <line stroke="#666" stroke-width="1" x1="699.0" x2="699.0" y1="305.0" y2="309.0" class="wj-tick" style="box-sizing: inherit; stroke: rgb(170, 170, 170); stroke-width: 1px;" />
    <text x="733.8" y="328.0" fill="rgb(38,41,27)" class="wj-label" fill-opacity="1" style="box-sizing: inherit; cursor: default; font-size: 10pt; font-family: 'Segoe UI'; font-style: normal; font-weight: normal; fill: rgb(38, 41, 27); fill-opacity: 1;">16</text>
    <line stroke="#666" stroke-width="1" x1="741.0" x2="741.0" y1="305.0" y2="309.0" class="wj-tick" style="box-sizing: inherit; stroke: rgb(170, 170, 170); stroke-width: 1px;" />
    <text x="775.9" y="328.0" fill="rgb(38,41,27)" class="wj-label" fill-opacity="1" style="box-sizing: inherit; cursor: default; font-size: 10pt; font-family: 'Segoe UI'; font-style: normal; font-weight: normal; fill: rgb(38, 41, 27); fill-opacity: 1;">17</text>
    <line stroke="#666" stroke-width="1" x1="783.1" x2="783.1" y1="305.0" y2="309.0" class="wj-tick" style="box-sizing: inherit; stroke: rgb(170, 170, 170); stroke-width: 1px;" />
    <text x="817.9" y="328.0" fill="rgb(38,41,27)" class="wj-label" fill-opacity="1" style="box-sizing: inherit; cursor: default; font-size: 10pt; font-family: 'Segoe UI'; font-style: normal; font-weight: normal; fill: rgb(38, 41, 27); fill-opacity: 1;">18</text>
    <line stroke="#666" stroke-width="1" x1="825.1" x2="825.1" y1="305.0" y2="309.0" class="wj-tick" style="box-sizing: inherit; stroke: rgb(170, 170, 170); stroke-width: 1px;" />
    <text x="859.9" y="328.0" fill="rgb(38,41,27)" class="wj-label" fill-opacity="1" style="box-sizing: inherit; cursor: default; font-size: 10pt; font-family: 'Segoe UI'; font-style: normal; font-weight: normal; fill: rgb(38, 41, 27); fill-opacity: 1;">19</text>
    <line stroke="#666" stroke-width="1" x1="867.1" x2="867.1" y1="305.0" y2="309.0" class="wj-tick" style="box-sizing: inherit; stroke: rgb(170, 170, 170); stroke-width: 1px;" />
    <text x="901.9" y="328.0" fill="rgb(38,41,27)" class="wj-label" fill-opacity="1" style="box-sizing: inherit; cursor: default; font-size: 10pt; font-family: 'Segoe UI'; font-style: normal; font-weight: normal; fill: rgb(38, 41, 27); fill-opacity: 1;">20</text>
    <line stroke="#666" stroke-width="1" x1="909.1" x2="909.1" y1="305.0" y2="309.0" class="wj-tick" style="box-sizing: inherit; stroke: rgb(170, 170, 170); stroke-width: 1px;" />
    <text x="944.0" y="328.0" fill="rgb(38,41,27)" class="wj-label" fill-opacity="1" style="box-sizing: inherit; cursor: default; font-size: 10pt; font-family: 'Segoe UI'; font-style: normal; font-weight: normal; fill: rgb(38, 41, 27); fill-opacity: 1;">21</text>
    <line stroke="#666" stroke-width="1" x1="951.2" x2="951.2" y1="305.0" y2="309.0" class="wj-tick" style="box-sizing: inherit; stroke: rgb(170, 170, 170); stroke-width: 1px;" />
    <text x="986.0" y="328.0" fill="rgb(38,41,27)" class="wj-label" fill-opacity="1" style="box-sizing: inherit; cursor: default; font-size: 10pt; font-family: 'Segoe UI'; font-style: normal; font-weight: normal; fill: rgb(38, 41, 27); fill-opacity: 1;">22</text>
    <line stroke="#666" stroke-width="1" x1="993.2" x2="993.2" y1="305.0" y2="309.0" class="wj-tick" style="box-sizing: inherit; stroke: rgb(170, 170, 170); stroke-width: 1px;" />
    <text x="1028.0" y="328.0" fill="rgb(38,41,27)" class="wj-label" fill-opacity="1" style="box-sizing: inherit; cursor: default; font-size: 10pt; font-family: 'Segoe UI'; font-style: normal; font-weight: normal; fill: rgb(38, 41, 27); fill-opacity: 1;">23</text>
    <line stroke="#666" stroke-width="1" x1="1035.2" x2="1035.2" y1="305.0" y2="309.0" class="wj-tick" style="box-sizing: inherit; stroke: rgb(170, 170, 170); stroke-width: 1px;" />
    <text x="1070.0" y="328.0" fill="rgb(38,41,27)" class="wj-label" fill-opacity="1" style="box-sizing: inherit; cursor: default; font-size: 10pt; font-family: 'Segoe UI'; font-style: normal; font-weight: normal; fill: rgb(38, 41, 27); fill-opacity: 1;">24</text>
    <line stroke="#666" stroke-width="1" x1="1077.2" x2="1077.2" y1="305.0" y2="309.0" class="wj-tick" style="box-sizing: inherit; stroke: rgb(170, 170, 170); stroke-width: 1px;" />
    <text x="1112.1" y="328.0" fill="rgb(38,41,27)" class="wj-label" fill-opacity="1" style="box-sizing: inherit; cursor: default; font-size: 10pt; font-family: 'Segoe UI'; font-style: normal; font-weight: normal; fill: rgb(38, 41, 27); fill-opacity: 1;">25</text>
    <line stroke="#666" stroke-width="1" x1="1119.3" x2="1119.3" y1="305.0" y2="309.0" class="wj-tick" style="box-sizing: inherit; stroke: rgb(170, 170, 170); stroke-width: 1px;" />
    <text x="1154.1" y="328.0" fill="rgb(38,41,27)" class="wj-label" fill-opacity="1" style="box-sizing: inherit; cursor: default; font-size: 10pt; font-family: 'Segoe UI'; font-style: normal; font-weight: normal; fill: rgb(38, 41, 27); fill-opacity: 1;">26</text>
    <line stroke="#666" stroke-width="1" x1="1161.3" x2="1161.3" y1="305.0" y2="309.0" class="wj-tick" style="box-sizing: inherit; stroke: rgb(170, 170, 170); stroke-width: 1px;" />
    <line stroke="rgb(156,156,156)" stroke-width="1px" x1="68.6" x2="1169.8" y1="305.0" y2="305.0" class="wj-line" stroke-opacity="1" stroke-dasharray="none" style="box-sizing: inherit; stroke: rgb(156, 156, 156); stroke-opacity: 1; stroke-width: 1px; stroke-dasharray: none;" />
    <text x="573.7" y="353.0" fill="rgb(38,41,27)" class="wj-title" fill-opacity="1" style="box-sizing: inherit; cursor: default; font-size: 12pt; font-family: 'Segoe UI'; font-style: normal; font-weight: bold; fill: rgb(38, 41, 27); fill-opacity: 1;">Distance (KM)</text>
  </g>
  <g class="wj-axis-y" style="box-sizing: inherit;" clip-path="url(#chartRect847130)">
    <line stroke="rgb(156,156,156)" stroke-width="1px" x1="68.6" x2="1169.8" y1="295.1" y2="295.1" class="wj-gridline" stroke-opacity="1" stroke-dasharray="none" style="box-sizing: inherit; opacity: 0.75; stroke: rgb(156, 156, 156); stroke-opacity: 1; stroke-width: 1px; stroke-dasharray: none;" />
    <text x="34.1" y="300.6" fill="rgb(38,41,27)" class="wj-label" fill-opacity="1" style="box-sizing: inherit; cursor: default; font-size: 10pt; font-family: 'Segoe UI'; font-style: normal; font-weight: normal; fill: rgb(38, 41, 27); fill-opacity: 1;">140</text>
    <line stroke="rgb(156,156,156)" stroke-width="1px" x1="68.6" x2="1169.8" y1="262.7" y2="262.7" class="wj-gridline" stroke-opacity="1" stroke-dasharray="none" style="box-sizing: inherit; opacity: 0.75; stroke: rgb(156, 156, 156); stroke-opacity: 1; stroke-width: 1px; stroke-dasharray: none;" />
    <text x="34.1" y="268.2" fill="rgb(38,41,27)" class="wj-label" fill-opacity="1" style="box-sizing: inherit; cursor: default; font-size: 10pt; font-family: 'Segoe UI'; font-style: normal; font-weight: normal; fill: rgb(38, 41, 27); fill-opacity: 1;">150</text>
    <line stroke="rgb(156,156,156)" stroke-width="1px" x1="68.6" x2="1169.8" y1="230.3" y2="230.3" class="wj-gridline" stroke-opacity="1" stroke-dasharray="none" style="box-sizing: inherit; opacity: 0.75; stroke: rgb(156, 156, 156); stroke-opacity: 1; stroke-width: 1px; stroke-dasharray: none;" />
    <text x="34.1" y="235.8" fill="rgb(38,41,27)" class="wj-label" fill-opacity="1" style="box-sizing: inherit; cursor: default; font-size: 10pt; font-family: 'Segoe UI'; font-style: normal; font-weight: normal; fill: rgb(38, 41, 27); fill-opacity: 1;">160</text>
    <line stroke="rgb(156,156,156)" stroke-width="1px" x1="68.6" x2="1169.8" y1="198.0" y2="198.0" class="wj-gridline" stroke-opacity="1" stroke-dasharray="none" style="box-sizing: inherit; opacity: 0.75; stroke: rgb(156, 156, 156); stroke-opacity: 1; stroke-width: 1px; stroke-dasharray: none;" />
    <text x="34.1" y="203.5" fill="rgb(38,41,27)" class="wj-label" fill-opacity="1" style="box-sizing: inherit; cursor: default; font-size: 10pt; font-family: 'Segoe UI'; font-style: normal; font-weight: normal; fill: rgb(38, 41, 27); fill-opacity: 1;">170</text>
    <line stroke="rgb(156,156,156)" stroke-width="1px" x1="68.6" x2="1169.8" y1="165.6" y2="165.6" class="wj-gridline" stroke-opacity="1" stroke-dasharray="none" style="box-sizing: inherit; opacity: 0.75; stroke: rgb(156, 156, 156); stroke-opacity: 1; stroke-width: 1px; stroke-dasharray: none;" />
    <text x="34.1" y="171.1" fill="rgb(38,41,27)" class="wj-label" fill-opacity="1" style="box-sizing: inherit; cursor: default; font-size: 10pt; font-family: 'Segoe UI'; font-style: normal; font-weight: normal; fill: rgb(38, 41, 27); fill-opacity: 1;">180</text>
    <line stroke="rgb(156,156,156)" stroke-width="1px" x1="68.6" x2="1169.8" y1="133.2" y2="133.2" class="wj-gridline" stroke-opacity="1" stroke-dasharray="none" style="box-sizing: inherit; opacity: 0.75; stroke: rgb(156, 156, 156); stroke-opacity: 1; stroke-width: 1px; stroke-dasharray: none;" />
    <text x="34.1" y="138.7" fill="rgb(38,41,27)" class="wj-label" fill-opacity="1" style="box-sizing: inherit; cursor: default; font-size: 10pt; font-family: 'Segoe UI'; font-style: normal; font-weight: normal; fill: rgb(38, 41, 27); fill-opacity: 1;">190</text>
    <line stroke="rgb(156,156,156)" stroke-width="1px" x1="68.6" x2="1169.8" y1="100.8" y2="100.8" class="wj-gridline" stroke-opacity="1" stroke-dasharray="none" style="box-sizing: inherit; opacity: 0.75; stroke: rgb(156, 156, 156); stroke-opacity: 1; stroke-width: 1px; stroke-dasharray: none;" />
    <text x="34.1" y="106.3" fill="rgb(38,41,27)" class="wj-label" fill-opacity="1" style="box-sizing: inherit; cursor: default; font-size: 10pt; font-family: 'Segoe UI'; font-style: normal; font-weight: normal; fill: rgb(38, 41, 27); fill-opacity: 1;">200</text>
    <line stroke="rgb(156,156,156)" stroke-width="1px" x1="68.6" x2="1169.8" y1="68.4" y2="68.4" class="wj-gridline" stroke-opacity="1" stroke-dasharray="none" style="box-sizing: inherit; opacity: 0.75; stroke: rgb(156, 156, 156); stroke-opacity: 1; stroke-width: 1px; stroke-dasharray: none;" />
    <text x="34.1" y="73.9" fill="rgb(38,41,27)" class="wj-label" fill-opacity="1" style="box-sizing: inherit; cursor: default; font-size: 10pt; font-family: 'Segoe UI'; font-style: normal; font-weight: normal; fill: rgb(38, 41, 27); fill-opacity: 1;">210</text>
    <g transform="rotate(-90.0,10.5,175.0)" style="box-sizing: inherit;">
      <text x="-24.2" y="181.5" fill="rgb(38,41,27)" class="wj-title" fill-opacity="1" style="box-sizing: inherit; cursor: default; font-size: 12pt; font-family: 'Segoe UI'; font-style: normal; font-weight: bold; fill: rgb(38, 41, 27); fill-opacity: 1;">Elevation</text>
    </g>
    <line stroke="rgb(156,156,156)" stroke-width="1px" x1="68.6" x2="68.6" y1="45.0" y2="305.0" class="wj-line" stroke-opacity="0" stroke-dasharray="none" style="box-sizing: inherit; stroke: rgb(156, 156, 156); stroke-opacity: 0; stroke-width: 1px; stroke-dasharray: none;" />
  </g>
  <g class="wj-series-group" style="box-sizing: inherit;">
    <g style="box-sizing: inherit;">
      <polyline stroke="rgb(0,74,29)" stroke-width="1.9285714285714284" fill="none" points="68.6,48.4 69.3,45.0 69.9,45.0 70.7,46.8 71.4,53.0 72.2,62.9 72.9,73.2 73.6,78.0 74.3,76.3 75.2,68.4 75.8,63.8 76.2,60.8 76.7,72.0 77.7,96.8 78.2,108.2 78.4,108.0 78.6,107.6 78.8,107.2 79.1,106.7 79.5,106.2 79.8,106.7 80.0,107.5 80.2,109.7 80.4,113.1 80.6,114.8 80.9,115.0 81.2,115.9 81.6,117.4 81.9,118.0 82.1,116.8 82.4,117.1 82.7,119.1 82.9,120.2 83.0,120.4 83.2,120.7 83.3,121.2 83.5,121.7 83.6,122.1 83.8,121.0 84.0,117.5 84.3,113.4 84.6,108.9 84.8,106.4 84.9,105.5 85.1,105.4 85.2,105.5 85.4,105.5 85.4,105.3 85.5,105.3 85.7,105.5 85.8,105.5 85.8,105.3 86.0,105.7 86.3,106.7 86.5,107.9 86.7,109.2 86.9,109.0 87.2,108.4 87.5,108.8 87.8,109.4 88.0,109.1 88.2,107.9 88.4,106.9 88.5,105.9 88.7,104.8 88.9,104.4 89.1,104.8 89.3,105.9 89.4,106.8 89.5,107.5 89.6,107.8 89.7,107.7 89.9,109.1 90.3,112.3 90.5,114.4 90.5,115.4 90.7,117.5 91.1,120.6 91.3,122.5 91.4,123.4 91.5,124.7 91.7,126.1 91.8,127.5 92.0,128.9 92.2,129.6 92.4,129.8 92.6,130.0 92.6,130.0 92.8,129.9 92.9,129.9 93.1,130.1 93.2,130.3 93.4,130.3 93.6,130.4 93.7,130.3 93.8,130.3 93.9,130.2 94.0,130.1 94.2,129.9 94.3,129.7 94.4,129.7 94.6,129.8 94.7,130.4 95.0,131.4 95.2,131.6 95.3,131.6 95.4,131.6 95.5,131.5 95.6,131.6 95.8,131.8 95.9,131.9 95.9,132.0 96.0,132.0 96.2,131.9 96.2,131.7 96.3,131.6 96.4,131.5 96.5,131.5 96.6,131.4 96.6,131.4 96.7,131.4 96.7,131.6 96.8,131.7 97.0,131.6 97.1,131.3 97.2,131.1 97.4,130.8 97.5,130.4 97.6,129.8 97.8,129.2 97.9,128.6 98.0,128.3 98.2,128.1 98.4,128.3 98.5,128.4 98.7,128.6 98.7,128.8 98.8,128.7 98.9,129.0 99.0,129.5 99.1,130.0 99.2,130.4 99.3,130.7 99.4,130.9 99.5,131.1 99.6,130.9 99.7,130.8 99.7,130.6 99.8,130.4 99.9,130.2 99.9,130.0 100.0,130.1 100.1,130.1 100.1,130.0 100.2,130.1 100.3,130.4 100.5,131.0 100.9,132.5 101.2,133.6 101.3,133.7 101.5,134.2 101.7,135.4 102.0,136.7 102.2,137.8 102.5,139.6 102.7,141.5 102.9,143.6 103.2,145.4 103.4,146.8 103.7,148.0 103.9,148.9 104.1,149.1 104.2,148.8 104.4,148.6 104.6,148.8 104.8,149.4 104.9,150.2 105.1,151.4 105.3,153.2 105.8,155.8 106.2,156.4 106.5,155.5 106.8,154.8 107.0,154.3 107.3,153.2 107.7,151.4 108.0,150.6 108.1,150.3 108.3,150.1 108.5,149.9 108.7,149.0 108.9,148.2 109.1,147.4 109.2,146.2 109.3,146.1 109.4,147.4 109.6,148.0 109.8,147.8 110.0,146.4 110.2,143.7 110.4,141.4 110.6,139.4 110.9,136.5 111.2,133.0 111.5,131.1 111.7,130.3 111.8,130.0 112.0,130.3 112.1,130.1 112.2,129.6 112.3,128.9 112.4,127.9 112.5,127.4 112.6,127.4 112.8,128.0 112.9,129.2 113.1,130.6 113.3,132.5 113.5,134.5 113.7,136.7 114.1,140.7 114.9,144.5 115.3,145.7 115.5,146.5 115.6,147.6 115.8,149.0 116.0,150.6 116.2,153.0 116.4,155.2 116.6,156.3 116.7,157.0 116.9,157.7 117.0,158.5 117.2,159.5 117.4,160.7 117.8,162.2 117.9,163.1 118.0,163.1 118.1,162.8 118.3,162.1 118.6,161.6 118.9,161.5 119.1,161.5 119.3,161.7 119.4,161.2 119.7,159.8 120.0,159.5 120.4,159.1 120.8,159.4 121.2,159.9 121.5,160.1 121.8,160.4 122.0,160.7 122.3,160.8 122.5,160.5 122.8,160.7 123.1,159.6 123.6,158.4 123.9,157.8 124.2,157.1 124.4,157.2 124.7,158.2 125.0,159.1 125.1,160.0 125.4,162.2 125.7,164.7 126.1,163.8 126.5,163.0 126.7,163.0 126.9,163.5 127.1,163.8 127.2,163.8 127.3,164.1 127.6,164.7 127.8,165.0 128.0,164.3 128.2,163.6 128.5,163.3 128.8,162.9 129.2,162.4 129.5,162.1 129.7,162.1 129.9,162.7 130.1,163.7 130.3,164.9 130.5,166.1 130.7,166.1 130.8,166.0 131.1,165.8 131.4,164.4 131.8,163.1 132.2,162.3 132.6,162.7 132.9,163.3 133.2,163.6 133.6,163.7 133.9,163.7 134.2,163.9 134.6,164.1 135.1,164.5 135.5,164.7 136.0,165.1 136.4,165.2 136.8,164.7 137.1,164.4 137.5,164.4 137.8,164.3 138.1,164.2 138.3,164.0 138.5,163.9 138.8,164.0 139.1,163.9 139.4,163.9 139.6,164.2 140.0,164.2 140.4,164.2 141.0,164.2 142.0,165.1 142.8,165.6 143.5,165.5 143.9,165.3 144.2,165.3 144.5,165.2 145.0,165.3 145.4,165.3 145.7,165.4 146.1,165.2 146.6,165.2 147.0,165.5 147.2,164.5 147.5,163.8 147.8,163.7 148.2,164.9 148.8,165.6 149.2,165.2 149.5,165.0 149.9,165.2 150.5,165.3 151.0,165.0 151.5,164.9 151.8,165.0 152.1,165.0 152.3,165.0 152.5,164.9 152.7,164.7 152.9,164.5 153.2,164.2 153.4,163.8 153.7,163.4 154.1,163.5 154.4,164.3 154.7,165.0 155.0,165.3 155.2,165.5 155.4,165.6 155.8,165.6 156.2,165.6 156.6,165.6 156.9,165.6 157.2,165.6 157.4,165.6 157.6,165.6 157.8,165.6 158.0,165.6 158.2,165.6 158.5,165.6 158.7,165.6 158.9,165.6 159.2,165.6 159.7,165.6 160.0,165.6 160.4,165.6 160.7,165.6 161.0,165.6 162.1,165.6 163.9,165.6 165.6,158.7 167.3,138.7 168.9,113.2 170.6,105.3 172.1,117.2 173.3,132.2 175.6,149.9 179.1,160.7 181.3,165.6 182.3,165.6 183.5,165.6 184.9,165.6 186.4,165.6 188.2,165.6 189.6,165.6 190.8,165.6 192.4,165.6 194.3,165.6 196.1,165.6 197.6,165.6 199.4,165.6 201.5,165.6 204.1,165.6 207.3,165.6 209.7,168.8 211.6,168.8 213.3,168.8 214.9,168.5 216.6,166.1 218.4,165.6 220.5,165.6 223.2,165.6 225.6,165.6 227.6,165.6 229.2,165.6 230.3,165.6 232.3,165.6 235.6,165.6 238.1,165.5 239.7,165.1 241.9,163.6 244.5,159.8 246.9,145.2 249.2,138.0 251.8,140.6 254.7,165.4 256.7,165.6 258.2,163.9 259.4,158.3 260.4,150.7 261.7,149.6 263.5,156.6 265.0,164.4 266.5,165.4 267.9,164.3 269.4,157.5 271.7,141.9 274.7,141.3 277.2,141.9 278.9,137.2 281.2,136.3 284.0,140.2 286.6,143.3 289.0,137.8 291.3,133.0 293.5,133.2 294.8,133.2 295.5,133.2 296.6,133.2 298.1,133.1 300.4,133.2 303.7,133.2 305.7,130.6 306.4,128.2 307.3,123.3 308.5,114.1 310.3,102.1 312.5,90.3 314.2,81.9 315.5,76.5 316.8,68.5 318.3,60.8 320.0,55.2 322.0,52.1 323.3,56.3 323.9,57.6 324.8,57.7 326.0,58.8 327.2,60.0 328.5,63.1 329.5,65.3 330.2,65.5 330.8,65.7 331.4,68.3 332.0,71.4 332.6,73.9 333.3,78.6 334.2,85.8 335.1,92.6 336.0,101.3 336.7,106.4 337.2,111.0 337.7,114.9 338.3,118.5 338.7,120.7 339.1,121.6 339.5,121.6 339.9,121.4 340.2,120.4 340.5,118.4 340.8,115.8 341.1,112.9 341.4,110.7 341.7,108.8 342.1,106.0 342.7,103.2 343.1,102.1 343.3,101.6 343.6,101.2 343.9,100.9 344.3,100.8 344.7,100.8 345.1,100.9 345.6,101.0 346.2,101.5 346.8,102.1 347.3,101.8 347.7,101.1 348.0,100.8 348.4,100.5 348.8,99.1 349.4,98.3 349.9,98.5 350.3,98.8 350.7,102.2 351.0,106.1 351.4,109.6 351.8,113.6 352.2,116.1 352.8,117.2 353.3,117.1 353.7,116.8 354.1,118.0 354.5,120.4 354.8,121.7 354.8,122.0 355.2,126.0 355.9,133.0 356.7,133.0 357.8,128.9 358.6,126.9 359.1,125.9 359.5,125.7 359.7,124.6 360.0,125.3 360.5,127.3 360.8,128.3 361.0,129.0 361.3,129.0 361.6,128.3 361.8,128.1 362.2,128.9 362.5,130.3 363.0,131.7 363.4,132.2 363.7,132.7 364.0,133.1 364.3,133.3 364.7,133.2 365.2,133.2 365.6,133.2 365.9,133.2 366.3,133.2 366.8,133.2 367.3,133.2 367.6,133.2 368.1,133.1 368.5,133.1 368.9,133.0 369.3,133.8 369.7,134.6 370.0,135.8 370.5,140.3 371.1,146.8 371.6,152.1 371.9,155.1 372.2,157.8 372.6,160.8 372.9,162.6 373.2,163.8 373.5,164.8 374.0,165.4 374.4,165.6 374.8,165.6 375.2,165.6 375.4,165.6 375.8,165.3 376.4,164.7 376.9,164.2 377.4,163.9 377.8,162.9 378.0,162.5 378.4,163.7 379.0,164.3 379.4,164.6 379.7,165.0 380.3,165.3 381.0,165.6 381.6,165.6 382.0,165.6 382.6,165.6 383.2,165.6 383.9,165.6 384.6,165.6 385.2,165.6 385.7,165.6 386.2,165.6 386.8,165.6 387.2,165.6 387.6,165.6 387.9,165.6 388.3,165.6 388.7,165.6 389.1,165.6 389.6,165.6 390.1,165.6 390.6,165.6 391.0,165.6 391.4,165.6 391.9,165.6 392.3,165.6 392.7,165.6 393.0,165.5 393.4,164.8 393.7,164.8 394.4,165.4 394.9,165.6 395.5,165.5 395.9,163.7 396.2,162.3 396.6,161.2 396.9,160.4 397.3,160.3 397.7,160.8 398.2,161.7 398.8,162.8 399.3,163.4 399.6,163.3 400.1,163.9 400.7,164.6 401.2,164.9 401.7,165.0 402.0,165.0 402.4,163.9 402.8,163.9 403.3,165.1 403.7,165.3 404.1,165.2 404.5,164.9 404.8,164.3 405.3,164.0 405.9,164.1 406.4,163.6 406.8,162.9 407.3,162.2 407.8,161.6 408.6,161.3 409.5,162.7 410.4,164.3 411.0,165.6 411.5,165.7 411.9,165.6 412.2,165.5 412.6,165.5 412.9,165.5 413.2,165.5 413.6,165.5 414.0,165.5 414.3,165.5 414.7,165.5 415.0,165.5 415.4,165.5 415.7,165.5 416.1,165.5 416.5,165.5 417.0,165.5 417.3,165.4 417.6,165.3 418.0,164.7 418.6,164.6 419.4,165.3 420.2,165.5 420.8,165.5 421.3,165.5 421.7,165.3 422.1,165.2 422.5,165.5 422.9,165.6 423.4,165.5 423.9,165.4 424.3,165.2 424.6,163.9 425.0,162.7 425.5,162.4 426.0,161.8 426.4,162.1 426.8,161.3 427.2,158.5 427.6,157.1 428.2,158.4 428.7,160.5 429.3,162.9 429.7,165.0 430.1,165.2 430.5,165.3 431.2,165.5 431.5,165.6 431.7,165.5 432.0,165.5 432.3,165.4 433.1,165.4 434.4,165.4 435.5,165.5 436.1,165.5 437.1,165.2 438.3,165.0 439.3,165.5 440.0,165.5 440.5,165.5 441.0,165.5 441.3,165.5 441.6,165.5 442.1,165.5 442.9,165.5 443.7,166.1 444.5,168.1 445.2,170.3 445.7,172.4 446.1,174.0 446.4,175.7 446.8,177.9 447.2,180.4 447.9,184.2 448.7,189.7 449.5,192.9 450.3,195.0 451.2,194.5 452.3,195.3 453.3,197.1 454.2,197.0 455.2,196.4 456.5,196.4 457.9,194.1 459.6,191.2 461.3,190.3 463.2,195.3 464.4,195.8 464.8,196.9 465.4,195.3 466.1,190.5 466.6,187.7 467.1,190.8 467.9,192.6 468.8,194.4 469.4,194.2 469.6,193.1 469.9,192.9 470.3,194.3 470.9,196.3 471.6,197.9 472.2,198.3 472.6,198.2 472.9,198.2 473.2,198.2 473.5,198.0 473.8,197.7 474.1,197.4 474.4,197.4 474.9,197.0 475.4,197.0 475.8,197.0 476.2,197.0 476.4,197.0 476.6,197.1 477.0,197.0 477.7,196.5 478.3,196.1 478.7,195.8 479.1,196.0 479.5,196.3 480.0,196.9 480.5,197.6 481.0,198.0 481.5,198.0 482.0,198.0 482.5,198.0 483.1,198.0 483.9,198.0 484.4,198.0 485.0,198.0 485.5,197.6 486.1,197.5 486.6,197.5 486.9,197.4 487.4,197.3 488.1,197.2 488.6,197.1 489.0,197.0 489.5,196.8 490.0,196.8 490.9,196.8 492.1,197.0 493.1,195.2 493.7,193.8 494.5,194.3 495.4,195.2 496.1,196.6 496.6,197.7 497.2,197.7 497.8,197.4 498.4,197.4 499.1,197.1 499.8,197.6 500.4,196.5 501.0,195.3 501.6,194.0 502.1,193.0 502.5,192.3 502.9,193.8 503.5,192.7 504.1,193.1 504.6,194.9 505.1,194.3 505.7,194.3 506.3,195.2 507.0,195.7 507.5,196.0 507.8,195.3 508.3,194.7 509.1,193.0 510.1,191.6 511.2,192.4 512.2,192.2 513.1,191.0 513.9,188.0 514.6,182.0 515.1,176.3 515.6,174.3 516.1,171.4 516.5,168.6 516.9,168.1 517.4,169.7 517.9,172.4 518.4,175.8 519.1,180.7 520.0,186.8 520.7,192.5 521.4,195.9 522.0,196.4 522.5,197.0 523.1,197.6 523.7,197.9 524.2,197.9 524.7,197.9 525.1,197.9 525.5,197.9 526.1,197.9 526.9,197.9 527.7,197.9 528.4,197.9 529.0,198.0 529.5,198.0 530.0,198.0 530.6,198.0 531.1,198.0 531.4,198.0 531.7,198.0 531.9,198.0 532.4,198.0 533.3,198.0 534.0,198.0 534.5,198.0 535.0,198.0 535.4,198.0 535.9,198.0 536.5,198.0 537.1,198.0 537.5,197.7 537.9,196.5 538.4,194.4 538.8,192.0 539.1,187.7 539.5,185.8 540.2,187.9 540.9,185.3 541.5,182.6 542.3,181.1 543.1,178.0 544.0,177.5 544.9,180.3 545.5,183.9 545.8,186.4 546.5,186.4 547.6,187.6 548.9,190.0 550.3,186.6 552.0,185.7 553.8,185.2 555.5,186.8 557.1,189.5 558.4,186.6 559.2,183.2 560.1,179.3 561.0,178.7 561.9,178.1 562.7,177.2 563.4,177.7 563.9,178.0 564.4,177.5 564.8,175.5 565.4,176.6 566.3,181.9 567.0,187.2 567.7,191.0 568.3,193.4 568.8,195.1 569.4,197.1 570.0,198.2 570.4,197.6 570.7,197.0 571.0,196.2 571.3,193.4 571.7,190.5 572.2,186.7 572.7,184.5 573.0,183.7 573.7,182.7 574.8,185.6 575.6,188.3 576.1,188.0 576.8,188.0 577.5,187.8 578.2,187.4 579.0,188.9 579.7,191.1 580.3,192.9 580.8,193.8 581.3,193.2 581.8,192.4 582.4,193.4 582.9,193.9 583.4,194.4 583.9,193.2 584.4,189.6 584.8,185.9 585.2,180.3 585.7,176.2 586.2,173.8 586.7,174.0 587.3,178.2 587.9,180.4 588.6,181.0 589.1,181.7 589.4,179.2 590.2,175.5 591.4,170.1 592.2,174.0 592.8,180.1 593.3,183.6 593.9,186.3 594.3,187.2 594.6,186.2 595.0,185.9 595.5,186.7 595.9,188.3 596.3,190.1 596.7,190.5 597.3,188.6 597.9,187.2 598.5,188.2 599.0,188.6 599.4,189.1 599.8,190.2 600.1,191.6 600.4,193.3 600.9,194.5 601.3,195.8 601.8,196.9 602.3,197.8 602.8,198.0 603.2,196.0 603.7,193.2 604.1,188.6 604.6,184.5 605.0,183.6 605.3,185.7 605.8,189.2 606.4,190.5 606.9,190.3 607.3,188.1 607.8,187.7 608.3,189.4 608.7,188.9 609.1,187.9 609.5,187.4 609.8,186.7 610.1,187.3 610.4,189.3 611.0,191.5 611.7,194.3 612.3,196.5 612.7,196.3 613.2,195.8 613.9,194.4 614.6,195.0 615.3,195.1 616.0,195.0 616.6,194.3 617.8,193.4 619.5,194.0 620.7,192.7 621.2,194.5 621.7,194.5 622.4,193.7 623.0,193.4 623.6,194.7 624.2,195.6 625.0,195.9 625.7,196.8 626.4,197.0 627.1,193.7 627.7,192.3 628.1,190.2 628.4,191.0 629.0,194.8 629.9,204.1 630.4,211.4 630.8,213.4 631.2,213.9 631.7,214.1 632.2,214.8 632.7,214.0 633.2,213.1 633.7,212.5 634.1,212.9 634.4,213.7 634.8,211.3 635.4,206.2 636.1,207.5 637.2,211.6 637.9,213.6 638.4,213.5 639.2,215.1 640.2,220.2 641.0,222.2 641.4,222.0 641.9,222.5 642.7,218.6 643.2,216.3 643.6,217.1 644.1,218.9 644.7,223.2 645.3,221.5 646.0,217.4 646.6,214.4 647.2,213.6 647.7,213.5 648.3,210.7 648.9,205.5 649.5,201.9 650.3,198.8 651.4,210.3 652.5,221.5 653.7,224.8 654.6,223.1 655.4,221.4 656.1,221.2 656.6,221.0 657.1,218.7 657.6,214.5 658.2,211.1 658.9,209.9 659.5,209.1 660.0,209.2 660.3,208.5 660.5,206.7 660.8,205.2 661.1,203.7 661.7,203.6 662.4,205.4 663.0,208.2 663.4,209.1 663.7,208.7 663.9,206.8 664.4,198.3 665.4,182.7 666.1,176.2 666.5,174.3 667.1,173.1 667.8,173.2 668.4,175.5 669.1,176.8 669.9,174.6 670.7,171.7 671.6,169.7 672.4,168.3 673.2,168.2 673.9,169.3 674.6,169.6 675.3,170.3 676.0,168.2 677.0,165.5 677.7,165.5 678.3,166.7 678.9,168.4 679.4,170.1 680.4,173.0 681.8,177.1 682.9,179.8 683.9,181.7 684.7,183.3 685.3,183.8 685.8,184.4 686.4,184.5 687.3,183.4 688.5,183.1 689.5,183.9 690.3,185.3 691.2,186.4 692.2,187.7 693.2,188.9 694.2,188.5 695.2,187.9 696.3,187.2 697.3,186.1 698.1,183.4 698.8,179.8 699.3,177.5 699.9,175.9 700.6,174.6 701.1,173.6 701.4,172.9 701.7,172.3 701.8,171.8 701.9,171.4 702.2,171.0 702.4,170.6 702.7,170.1 702.9,169.5 703.0,168.8 703.4,168.1 703.9,167.4 704.4,167.1 704.7,167.3 705.1,167.8 705.4,168.4 705.7,168.7 706.2,169.3 706.7,170.0 707.0,170.5 707.4,171.3 707.8,172.0 708.4,172.5 709.1,172.9 709.6,173.1 710.2,173.9 710.6,174.8 711.0,174.8 711.3,175.5 711.6,176.7 712.2,177.6 712.9,178.4 713.6,179.4 714.2,179.8 714.9,180.2 715.5,179.5 716.2,178.0 716.7,176.8 717.0,175.5 717.1,174.9 717.2,174.4 717.3,174.0 717.4,173.8 717.5,173.6 717.8,173.3 718.1,172.9 718.4,172.4 718.6,171.8 719.0,170.8 719.5,169.3 720.1,167.7 721.0,166.4 721.9,165.9 722.8,165.5 724.1,165.5 725.9,165.8 727.2,169.4 728.0,175.2 728.7,181.9 729.5,189.6 730.1,196.6 730.6,203.5 730.9,208.3 731.2,209.4 731.6,212.3 732.0,216.4 732.7,220.9 733.6,226.0 734.6,230.2 735.7,230.4 736.6,230.4 737.2,230.4 737.9,230.4 738.7,230.3 739.5,230.3 740.3,230.3 741.1,230.3 742.2,229.7 742.9,228.1 743.5,225.6 744.2,222.2 744.8,218.9 745.8,211.7 747.0,203.8 748.3,199.0 749.5,197.9 750.7,197.9 751.7,197.9 752.8,197.9 753.9,197.9 754.9,197.9 755.8,197.9 756.8,197.9 757.7,197.9 758.5,197.9 759.2,197.9 760.3,197.9 761.9,198.0 763.0,198.0 763.6,198.0 764.5,198.0 765.7,198.1 766.6,198.4 767.4,198.3 768.1,198.1 768.7,198.2 769.4,198.4 770.4,198.9 771.3,199.7 772.1,200.7 773.0,201.0 774.0,200.4 775.0,200.0 776.0,200.7 777.3,201.8 778.8,203.3 780.0,203.9 780.8,203.6 781.7,203.2 782.6,202.0 783.5,200.3 784.5,198.0 785.4,198.0 786.3,198.0 787.3,198.0 788.3,198.0 789.0,198.0 789.4,198.0 789.9,198.0 790.3,198.0 791.0,198.0 792.0,198.0 792.9,198.0 793.7,198.0 794.4,198.0 795.0,198.0 795.6,198.0 796.1,198.0 796.6,198.0 797.2,198.0 798.1,198.0 799.2,197.7 799.9,197.4 800.2,197.4 800.7,197.6 801.5,197.6 802.3,197.9 803.2,197.8 804.2,198.0 805.4,198.0 806.2,198.0 806.8,198.0 807.3,198.0 807.7,198.0 808.3,198.0 809.2,198.0 810.3,198.0 811.7,198.0 812.8,198.0 813.7,198.0 814.3,198.0 814.6,198.0 815.2,198.0 816.0,198.0 816.9,198.0 817.8,198.0 818.8,198.0 820.0,198.0 820.7,198.0 821.0,198.0 821.8,198.0 823.0,198.0 824.1,198.0 825.2,197.9 826.3,199.0 827.4,203.5 828.3,210.9 829.1,217.1 829.8,221.1 830.6,224.5 831.7,228.3 833.1,229.2 834.4,229.7 835.5,230.1 836.3,229.8 836.9,229.1 837.4,227.1 837.9,225.3 838.7,223.4 839.6,219.1 840.4,218.6 840.9,222.2 841.8,220.1 842.9,215.0 844.1,212.2 845.4,210.2 847.1,208.2 849.5,211.0 851.0,216.6 852.0,217.1 852.8,215.4 853.5,211.5 854.6,205.2 856.0,195.6 857.2,190.1 858.3,187.9 859.3,188.2 860.2,191.0 861.1,194.5 862.0,196.0 862.7,194.3 863.3,190.6 865.4,176.5 869.1,149.3 871.3,175.8 872.0,180.8 872.7,181.9 873.4,177.7 873.9,181.7 874.5,188.0 875.1,194.8 875.7,199.4 876.8,203.1 878.4,203.5 879.3,205.5 879.5,206.2 879.7,207.7 880.0,210.2 880.2,211.0 880.5,210.1 880.8,209.6 881.0,208.9 881.3,209.3 881.7,210.7 881.9,212.8 882.3,215.6 882.6,218.1 882.9,220.3 883.2,221.9 883.4,222.9 883.7,223.7 884.1,224.8 884.6,226.4 885.1,227.1 885.6,226.2 886.1,225.3 886.3,225.5 886.6,227.2 886.7,227.4 887.1,226.2 887.4,224.8 887.9,223.0 888.3,221.0 888.8,219.3 889.1,218.2 889.3,216.7 889.5,215.6 889.7,215.0 890.1,215.0 890.8,215.5 891.3,215.4 891.9,214.4 892.5,213.8 893.1,212.8 893.6,212.0 893.7,211.7 894.0,211.4 894.3,210.5 894.8,210.1 895.6,210.8 896.5,212.2 897.6,210.4 898.6,211.1 899.5,215.5 900.4,220.3 901.2,225.4 902.1,227.9 903.0,227.5 903.7,230.2 904.4,228.9 905.0,228.2 905.7,225.1 906.2,224.4 906.6,225.6 907.0,226.4 907.4,226.6 907.8,226.7 908.2,225.8 908.8,226.1 909.6,227.2 910.2,228.2 910.6,228.0 911.0,228.7 911.5,229.0 912.1,229.7 912.6,228.6 913.5,223.2 914.6,212.4 915.7,204.5 917.0,209.6 918.4,210.7 919.9,207.3 921.0,206.9 921.9,214.7 923.0,220.3 924.5,217.6 926.3,217.2 928.5,223.7 929.9,222.5 930.6,215.1 931.3,210.3 931.7,206.3 932.2,201.5 932.8,195.9 933.5,188.0 934.1,177.5 934.6,167.8 935.1,159.9 935.6,152.5 936.1,145.9 936.5,142.1 936.8,140.3 937.1,137.5 937.6,134.8 937.9,133.1 938.0,132.6 938.5,131.6 939.2,130.0 939.9,129.4 940.7,130.3 941.2,131.2 941.5,131.8 941.9,131.4 942.4,129.9 943.0,131.2 943.7,135.3 944.3,138.9 944.8,141.2 945.2,142.1 945.7,142.2 946.1,141.7 946.5,140.5 947.0,140.4 947.6,142.0 948.2,142.7 948.9,142.4 949.7,142.3 950.9,142.3 951.8,142.1 952.5,141.8 952.9,140.9 953.2,138.9 953.6,138.6 954.2,140.3 954.7,141.2 955.3,141.9 955.7,141.9 956.0,141.4 956.5,141.1 957.2,141.0 957.6,141.3 958.0,141.0 958.4,141.3 958.9,140.3 959.3,138.9 959.6,137.3 959.9,138.1 960.3,140.7 960.8,142.0 961.4,142.8 961.9,144.0 962.3,145.0 962.7,145.5 963.1,145.7 963.5,147.4 963.8,150.6 964.2,152.8 964.9,154.2 965.6,155.6 966.2,156.6 966.8,155.3 967.6,152.7 968.3,151.3 968.9,149.2 969.6,147.2 970.4,145.2 971.8,139.9 973.9,136.0 975.5,134.5 976.7,138.9 977.9,143.8 979.2,147.7 980.7,151.3 982.5,156.2 983.5,159.5 983.9,159.4 984.4,160.6 984.8,162.2 985.5,163.1 986.4,159.0 987.2,155.4 987.9,154.3 988.6,153.7 989.1,152.5 989.7,150.6 990.3,148.0 991.0,147.6 991.7,148.6 992.4,148.9 993.0,149.2 993.7,151.4 994.4,153.7 995.1,155.6 995.7,156.5 996.5,155.0 997.6,156.4 998.3,156.9 998.7,156.8 999.5,157.6 1000.9,159.3 1002.1,160.5 1002.9,161.2 1003.6,160.9 1004.2,159.8 1005.1,158.0 1006.4,155.0 1007.5,152.6 1008.6,152.4 1009.4,154.2 1010.2,157.3 1011.1,160.7 1012.1,162.9 1012.8,163.9 1013.1,164.2 1014.0,163.0 1015.5,160.7 1016.6,158.5 1017.5,157.6 1018.2,157.7 1018.7,158.0 1019.3,158.3 1019.8,158.3 1020.5,159.4 1021.4,161.8 1022.4,162.7 1023.5,164.3 1024.7,165.9 1025.8,166.5 1026.6,166.6 1027.1,166.4 1027.7,166.2 1028.5,166.0 1029.1,165.8 1029.4,165.8 1029.7,165.8 1030.2,166.0 1030.5,166.0 1030.8,165.9 1031.3,165.6 1032.1,165.4 1032.6,164.9 1033.0,165.0 1033.5,165.5 1034.2,166.9 1034.8,168.4 1035.4,170.4 1036.1,172.4 1037.0,174.1 1037.8,175.0 1038.3,175.8 1038.9,177.5 1039.5,179.5 1040.1,181.2 1040.6,182.8 1041.3,183.8 1042.4,185.8 1043.0,187.4 1043.2,188.2 1043.7,189.0 1044.4,191.0 1045.0,192.7 1045.4,193.3 1046.0,193.4 1046.7,193.8 1047.4,194.0 1047.9,193.7 1048.6,192.9 1049.4,191.6 1050.3,190.9 1051.1,189.9 1051.9,189.0 1052.7,189.7 1053.4,190.3 1053.9,190.4 1054.6,190.1 1055.5,189.5 1056.2,188.9 1056.7,189.2 1057.2,192.8 1057.6,199.4 1058.0,202.6 1058.6,202.5 1059.3,206.7 1060.1,217.3 1060.9,225.3 1061.5,231.0 1062.3,235.9 1063.1,240.1 1063.9,241.8 1064.7,240.5 1065.6,237.2 1066.7,234.8 1067.7,234.4 1068.7,236.6 1069.3,243.9 1069.8,250.5 1070.5,260.4 1071.7,279.7 1072.6,288.2 1073.2,291.5 1073.8,292.4 1074.5,291.3 1075.1,292.6 1075.8,295.0 1076.6,301.5 1077.6,305.0 1078.8,301.2 1080.2,286.3 1081.1,278.6 1081.5,275.9 1082.2,269.7 1083.1,257.3 1084.3,247.4 1085.6,238.2 1086.4,236.0 1086.8,242.9 1087.4,253.5 1088.2,266.9 1088.7,277.4 1089.1,285.9 1089.5,291.0 1090.0,293.1 1090.9,291.3 1092.3,281.3 1093.2,271.8 1093.6,263.9 1094.1,257.0 1094.6,252.2 1094.9,251.7 1095.1,255.9 1095.4,259.5 1095.7,261.6 1096.0,259.6 1096.4,255.1 1096.9,254.0 1097.6,253.6 1098.1,252.1 1098.5,250.2 1098.8,248.0 1099.1,246.0 1099.5,241.1 1099.9,233.1 1100.4,224.5 1101.1,217.0 1101.8,212.3 1102.6,210.3 1103.2,209.4 1103.9,209.5 1104.5,209.8 1105.1,211.0 1105.5,213.2 1105.9,216.6 1106.5,221.9 1107.2,229.2 1107.8,236.8 1108.3,242.5 1108.8,245.3 1109.4,245.4 1110.1,242.6 1110.8,237.6 1111.4,232.6 1112.0,228.3 1112.6,224.0 1113.2,220.3 1113.8,219.9 1114.3,221.8 1114.8,223.1 1115.3,224.2 1115.7,225.7 1116.2,228.0 1116.6,229.7 1117.0,232.5 1117.4,234.5 1117.7,235.5 1118.2,234.8 1118.8,232.2 1119.4,229.1 1119.9,225.1 1120.5,220.7 1121.0,216.1 1121.4,214.5 1121.7,214.3 1122.1,218.6 1122.5,227.6 1122.9,233.7 1123.3,236.4 1123.6,238.8 1123.9,240.7 1124.2,243.4 1124.7,246.6 1125.2,250.5 1125.5,256.6 1125.9,265.0 1126.4,274.0 1127.0,272.4 1127.8,261.6 1128.4,255.3 1129.1,252.5 1129.7,252.6 1130.2,255.7 1130.8,255.4 1131.5,249.6 1132.2,244.9 1132.7,241.7 1133.1,239.8 1133.4,239.3 1133.6,236.8 1133.9,232.7 1134.2,229.5 1134.7,227.3 1135.2,223.2 1135.8,216.9 1136.4,210.6 1136.9,205.3 1137.5,199.0 1138.1,191.6 1138.8,184.5 1139.5,177.1 1140.2,170.3 1140.9,164.3 1141.6,160.1 1142.1,157.2 1142.7,155.8 1143.1,155.8 1143.7,155.8 1144.3,155.8 1145.0,155.8 1145.8,155.8 1146.5,155.7 1147.3,156.7 1148.1,158.6 1149.0,160.1 1149.7,162.5 1150.4,164.0 1151.0,165.0 1151.7,165.4 1152.4,165.2 1153.2,164.4 1154.0,163.1 1154.7,162.1 1155.2,162.2 1155.6,163.4 1156.0,164.6 1156.4,165.9 1156.8,167.0 1157.2,168.4 1157.6,169.2 1157.8,169.7 1158.3,171.4 1159.0,173.9 1159.4,175.4 1159.5,176.1 1159.7,176.9 1159.9,178.0 1160.3,179.0 1161.0,180.7 1161.5,182.5 1162.0,184.1 1162.4,187.6 1162.8,190.8 1163.1,193.2 1163.3,195.2 1163.7,198.0 1164.1,200.4 1164.5,201.5 1164.7,201.9 1165.0,201.4 1165.3,200.3 1165.5,199.2 1165.7,198.0 1165.9,199.4 1166.3,203.6 1166.6,207.0 1166.8,209.9 1167.4,220.6 1168.5,247.5 1169.2,284.9 1169.8,304.8 " clip-path="url(#plotRect384498)" style="box-sizing: inherit; stroke-width: 1.92857;" stroke-opacity="0.8667" />
    </g>
  </g>
  <clipPath id="plotRect384498" style="box-sizing: inherit;">
    <rect x="68" y="44" width="1103" height="262" style="box-sizing: inherit;" />
  </clipPath>
  <clipPath id="plotRect138030" style="box-sizing: inherit;">
    <rect x="-1" y="-1" width="1103" height="262" style="box-sizing: inherit;" />
  </clipPath>
  <g class="wj-chart-annotationlayer" transform="translate(68.640625, 45)" style="box-sizing: inherit;" clip-path="url(#plotRect138030)" />
</svg>