<?xml version = "1.0" standalone = "no"?>
<!DOCTYPE svg PUBLIC "-//W3C//DTD SVG 1.1//EN" "http://www.w3.org/Graphics/SVG/1.1/DTD/svg11.dtd">

<svg xmlns="http://www.w3.org/2000/svg" width="1177" height="294" style="box-sizing: inherit; font-family: Calibri;">
  <rect id="backgroundRect" width="100%" height="100%" x="0" y="0" fill="rgb(255,255,255)" fill-opacity="1" visibility="visible" style="box-sizing: inherit; fill: rgb(255, 255, 255); fill-opacity: 1;" />
  <defs style="box-sizing: inherit;" />
  <clipPath id="chartRect934404" style="box-sizing: inherit;">
    <rect x="-1" y="-1" width="1179" height="296" style="box-sizing: inherit;" />
  </clipPath>
  <g class="wj-header" style="box-sizing: inherit; background: rgb(238, 238, 238); color: rgb(68, 68, 68); font-weight: 700;" clip-path="url(#chartRect934404)">
    <text x="390.8" y="19.0" fill="rgb(28,39,0)" class="wj-title" fill-opacity="1" style="box-sizing: inherit; cursor: default; font-size: 16pt; font-family: Arial; font-style: normal; font-weight: normal; fill: rgb(28, 39, 0); fill-opacity: 1;">Dumoine Tote Road Trail Elevation Profile</text>
  </g>
  <g class="wj-footer" style="box-sizing: inherit;" clip-path="url(#chartRect934404)">
    <text x="299.7" y="291.0" fill="rgb(28,39,0)" class="wj-title" fill-opacity="1" style="box-sizing: inherit; cursor: default; font-size: 10pt; font-family: Arial; font-style: normal; font-weight: normal; fill: rgb(28, 39, 0); fill-opacity: 1;">Variations in elevation along the trail starting at Trailhead North (km 0) to Trailhead South (km 26).</text>
  </g>
  <clipPath id="legRect419986" style="box-sizing: inherit;">
    <rect x="1176" y="151" width="2" height="2" style="box-sizing: inherit;" />
  </clipPath>
  <g class="wj-legend" style="box-sizing: inherit;" clip-path="url(#legRect419986)" />
  <g class="wj-plot-area" style="box-sizing: inherit;">
    <rect fill="#000000" stroke-width="2" x="66.4" y="39.0" width="1103.2" height="194.0" fill-opacity="0" style="box-sizing: inherit;" />
  </g>
  <g class="wj-axis-x" style="box-sizing: inherit;" clip-path="url(#chartRect934404)">
    <text x="62.6" y="254.0" fill="rgb(28,39,0)" class="wj-label" fill-opacity="1" style="box-sizing: inherit; cursor: default; font-size: 10pt; font-family: Arial; font-style: normal; font-weight: normal; fill: rgb(28, 39, 0); fill-opacity: 1;">0</text>
    <line stroke="#666" stroke-width="1" x1="66.4" x2="66.4" y1="233.0" y2="237.0" class="wj-tick" style="box-sizing: inherit; stroke: rgb(170, 170, 170); stroke-width: 1px;" />
    <text x="104.8" y="254.0" fill="rgb(28,39,0)" class="wj-label" fill-opacity="1" style="box-sizing: inherit; cursor: default; font-size: 10pt; font-family: Arial; font-style: normal; font-weight: normal; fill: rgb(28, 39, 0); fill-opacity: 1;">1</text>
    <line stroke="#666" stroke-width="1" x1="108.5" x2="108.5" y1="233.0" y2="237.0" class="wj-tick" style="box-sizing: inherit; stroke: rgb(170, 170, 170); stroke-width: 1px;" />
    <text x="146.9" y="254.0" fill="rgb(28,39,0)" class="wj-label" fill-opacity="1" style="box-sizing: inherit; cursor: default; font-size: 10pt; font-family: Arial; font-style: normal; font-weight: normal; fill: rgb(28, 39, 0); fill-opacity: 1;">2</text>
    <line stroke="#666" stroke-width="1" x1="150.6" x2="150.6" y1="233.0" y2="237.0" class="wj-tick" style="box-sizing: inherit; stroke: rgb(170, 170, 170); stroke-width: 1px;" />
    <text x="189.0" y="254.0" fill="rgb(28,39,0)" class="wj-label" fill-opacity="1" style="box-sizing: inherit; cursor: default; font-size: 10pt; font-family: Arial; font-style: normal; font-weight: normal; fill: rgb(28, 39, 0); fill-opacity: 1;">3</text>
    <line stroke="#666" stroke-width="1" x1="192.7" x2="192.7" y1="233.0" y2="237.0" class="wj-tick" style="box-sizing: inherit; stroke: rgb(170, 170, 170); stroke-width: 1px;" />
    <text x="230.8" y="254.0" fill="rgb(28,39,0)" class="wj-label" fill-opacity="1" style="box-sizing: inherit; cursor: default; font-size: 10pt; font-family: Arial; font-style: normal; font-weight: normal; fill: rgb(28, 39, 0); fill-opacity: 1;">4</text>
    <line stroke="#666" stroke-width="1" x1="234.8" x2="234.8" y1="233.0" y2="237.0" class="wj-tick" style="box-sizing: inherit; stroke: rgb(170, 170, 170); stroke-width: 1px;" />
    <text x="273.2" y="254.0" fill="rgb(28,39,0)" class="wj-label" fill-opacity="1" style="box-sizing: inherit; cursor: default; font-size: 10pt; font-family: Arial; font-style: normal; font-weight: normal; fill: rgb(28, 39, 0); fill-opacity: 1;">5</text>
    <line stroke="#666" stroke-width="1" x1="276.9" x2="276.9" y1="233.0" y2="237.0" class="wj-tick" style="box-sizing: inherit; stroke: rgb(170, 170, 170); stroke-width: 1px;" />
    <text x="315.3" y="254.0" fill="rgb(28,39,0)" class="wj-label" fill-opacity="1" style="box-sizing: inherit; cursor: default; font-size: 10pt; font-family: Arial; font-style: normal; font-weight: normal; fill: rgb(28, 39, 0); fill-opacity: 1;">6</text>
    <line stroke="#666" stroke-width="1" x1="319.0" x2="319.0" y1="233.0" y2="237.0" class="wj-tick" style="box-sizing: inherit; stroke: rgb(170, 170, 170); stroke-width: 1px;" />
    <text x="357.4" y="254.0" fill="rgb(28,39,0)" class="wj-label" fill-opacity="1" style="box-sizing: inherit; cursor: default; font-size: 10pt; font-family: Arial; font-style: normal; font-weight: normal; fill: rgb(28, 39, 0); fill-opacity: 1;">7</text>
    <line stroke="#666" stroke-width="1" x1="361.1" x2="361.1" y1="233.0" y2="237.0" class="wj-tick" style="box-sizing: inherit; stroke: rgb(170, 170, 170); stroke-width: 1px;" />
    <text x="399.5" y="254.0" fill="rgb(28,39,0)" class="wj-label" fill-opacity="1" style="box-sizing: inherit; cursor: default; font-size: 10pt; font-family: Arial; font-style: normal; font-weight: normal; fill: rgb(28, 39, 0); fill-opacity: 1;">8</text>
    <line stroke="#666" stroke-width="1" x1="403.2" x2="403.2" y1="233.0" y2="237.0" class="wj-tick" style="box-sizing: inherit; stroke: rgb(170, 170, 170); stroke-width: 1px;" />
    <text x="441.6" y="254.0" fill="rgb(28,39,0)" class="wj-label" fill-opacity="1" style="box-sizing: inherit; cursor: default; font-size: 10pt; font-family: Arial; font-style: normal; font-weight: normal; fill: rgb(28, 39, 0); fill-opacity: 1;">9</text>
    <line stroke="#666" stroke-width="1" x1="445.3" x2="445.3" y1="233.0" y2="237.0" class="wj-tick" style="box-sizing: inherit; stroke: rgb(170, 170, 170); stroke-width: 1px;" />
    <text x="480.0" y="254.0" fill="rgb(28,39,0)" class="wj-label" fill-opacity="1" style="box-sizing: inherit; cursor: default; font-size: 10pt; font-family: Arial; font-style: normal; font-weight: normal; fill: rgb(28, 39, 0); fill-opacity: 1;">10</text>
    <line stroke="#666" stroke-width="1" x1="487.4" x2="487.4" y1="233.0" y2="237.0" class="wj-tick" style="box-sizing: inherit; stroke: rgb(170, 170, 170); stroke-width: 1px;" />
    <text x="522.6" y="254.0" fill="rgb(28,39,0)" class="wj-label" fill-opacity="1" style="box-sizing: inherit; cursor: default; font-size: 10pt; font-family: Arial; font-style: normal; font-weight: normal; fill: rgb(28, 39, 0); fill-opacity: 1;">11</text>
    <line stroke="#666" stroke-width="1" x1="529.5" x2="529.5" y1="233.0" y2="237.0" class="wj-tick" style="box-sizing: inherit; stroke: rgb(170, 170, 170); stroke-width: 1px;" />
    <text x="564.2" y="254.0" fill="rgb(28,39,0)" class="wj-label" fill-opacity="1" style="box-sizing: inherit; cursor: default; font-size: 10pt; font-family: Arial; font-style: normal; font-weight: normal; fill: rgb(28, 39, 0); fill-opacity: 1;">12</text>
    <line stroke="#666" stroke-width="1" x1="571.6" x2="571.6" y1="233.0" y2="237.0" class="wj-tick" style="box-sizing: inherit; stroke: rgb(170, 170, 170); stroke-width: 1px;" />
    <text x="606.3" y="254.0" fill="rgb(28,39,0)" class="wj-label" fill-opacity="1" style="box-sizing: inherit; cursor: default; font-size: 10pt; font-family: Arial; font-style: normal; font-weight: normal; fill: rgb(28, 39, 0); fill-opacity: 1;">13</text>
    <line stroke="#666" stroke-width="1" x1="613.7" x2="613.7" y1="233.0" y2="237.0" class="wj-tick" style="box-sizing: inherit; stroke: rgb(170, 170, 170); stroke-width: 1px;" />
    <text x="648.1" y="254.0" fill="rgb(28,39,0)" class="wj-label" fill-opacity="1" style="box-sizing: inherit; cursor: default; font-size: 10pt; font-family: Arial; font-style: normal; font-weight: normal; fill: rgb(28, 39, 0); fill-opacity: 1;">14</text>
    <line stroke="#666" stroke-width="1" x1="655.8" x2="655.8" y1="233.0" y2="237.0" class="wj-tick" style="box-sizing: inherit; stroke: rgb(170, 170, 170); stroke-width: 1px;" />
    <text x="690.5" y="254.0" fill="rgb(28,39,0)" class="wj-label" fill-opacity="1" style="box-sizing: inherit; cursor: default; font-size: 10pt; font-family: Arial; font-style: normal; font-weight: normal; fill: rgb(28, 39, 0); fill-opacity: 1;">15</text>
    <line stroke="#666" stroke-width="1" x1="697.9" x2="697.9" y1="233.0" y2="237.0" class="wj-tick" style="box-sizing: inherit; stroke: rgb(170, 170, 170); stroke-width: 1px;" />
    <text x="732.6" y="254.0" fill="rgb(28,39,0)" class="wj-label" fill-opacity="1" style="box-sizing: inherit; cursor: default; font-size: 10pt; font-family: Arial; font-style: normal; font-weight: normal; fill: rgb(28, 39, 0); fill-opacity: 1;">16</text>
    <line stroke="#666" stroke-width="1" x1="740.0" x2="740.0" y1="233.0" y2="237.0" class="wj-tick" style="box-sizing: inherit; stroke: rgb(170, 170, 170); stroke-width: 1px;" />
    <text x="774.7" y="254.0" fill="rgb(28,39,0)" class="wj-label" fill-opacity="1" style="box-sizing: inherit; cursor: default; font-size: 10pt; font-family: Arial; font-style: normal; font-weight: normal; fill: rgb(28, 39, 0); fill-opacity: 1;">17</text>
    <line stroke="#666" stroke-width="1" x1="782.1" x2="782.1" y1="233.0" y2="237.0" class="wj-tick" style="box-sizing: inherit; stroke: rgb(170, 170, 170); stroke-width: 1px;" />
    <text x="816.8" y="254.0" fill="rgb(28,39,0)" class="wj-label" fill-opacity="1" style="box-sizing: inherit; cursor: default; font-size: 10pt; font-family: Arial; font-style: normal; font-weight: normal; fill: rgb(28, 39, 0); fill-opacity: 1;">18</text>
    <line stroke="#666" stroke-width="1" x1="824.2" x2="824.2" y1="233.0" y2="237.0" class="wj-tick" style="box-sizing: inherit; stroke: rgb(170, 170, 170); stroke-width: 1px;" />
    <text x="858.9" y="254.0" fill="rgb(28,39,0)" class="wj-label" fill-opacity="1" style="box-sizing: inherit; cursor: default; font-size: 10pt; font-family: Arial; font-style: normal; font-weight: normal; fill: rgb(28, 39, 0); fill-opacity: 1;">19</text>
    <line stroke="#666" stroke-width="1" x1="866.3" x2="866.3" y1="233.0" y2="237.0" class="wj-tick" style="box-sizing: inherit; stroke: rgb(170, 170, 170); stroke-width: 1px;" />
    <text x="901.0" y="254.0" fill="rgb(28,39,0)" class="wj-label" fill-opacity="1" style="box-sizing: inherit; cursor: default; font-size: 10pt; font-family: Arial; font-style: normal; font-weight: normal; fill: rgb(28, 39, 0); fill-opacity: 1;">20</text>
    <line stroke="#666" stroke-width="1" x1="908.4" x2="908.4" y1="233.0" y2="237.0" class="wj-tick" style="box-sizing: inherit; stroke: rgb(170, 170, 170); stroke-width: 1px;" />
    <text x="943.1" y="254.0" fill="rgb(28,39,0)" class="wj-label" fill-opacity="1" style="box-sizing: inherit; cursor: default; font-size: 10pt; font-family: Arial; font-style: normal; font-weight: normal; fill: rgb(28, 39, 0); fill-opacity: 1;">21</text>
    <line stroke="#666" stroke-width="1" x1="950.5" x2="950.5" y1="233.0" y2="237.0" class="wj-tick" style="box-sizing: inherit; stroke: rgb(170, 170, 170); stroke-width: 1px;" />
    <text x="985.2" y="254.0" fill="rgb(28,39,0)" class="wj-label" fill-opacity="1" style="box-sizing: inherit; cursor: default; font-size: 10pt; font-family: Arial; font-style: normal; font-weight: normal; fill: rgb(28, 39, 0); fill-opacity: 1;">22</text>
    <line stroke="#666" stroke-width="1" x1="992.6" x2="992.6" y1="233.0" y2="237.0" class="wj-tick" style="box-sizing: inherit; stroke: rgb(170, 170, 170); stroke-width: 1px;" />
    <text x="1027.3" y="254.0" fill="rgb(28,39,0)" class="wj-label" fill-opacity="1" style="box-sizing: inherit; cursor: default; font-size: 10pt; font-family: Arial; font-style: normal; font-weight: normal; fill: rgb(28, 39, 0); fill-opacity: 1;">23</text>
    <line stroke="#666" stroke-width="1" x1="1034.7" x2="1034.7" y1="233.0" y2="237.0" class="wj-tick" style="box-sizing: inherit; stroke: rgb(170, 170, 170); stroke-width: 1px;" />
    <text x="1069.1" y="254.0" fill="rgb(28,39,0)" class="wj-label" fill-opacity="1" style="box-sizing: inherit; cursor: default; font-size: 10pt; font-family: Arial; font-style: normal; font-weight: normal; fill: rgb(28, 39, 0); fill-opacity: 1;">24</text>
    <line stroke="#666" stroke-width="1" x1="1076.8" x2="1076.8" y1="233.0" y2="237.0" class="wj-tick" style="box-sizing: inherit; stroke: rgb(170, 170, 170); stroke-width: 1px;" />
    <text x="1111.5" y="254.0" fill="rgb(28,39,0)" class="wj-label" fill-opacity="1" style="box-sizing: inherit; cursor: default; font-size: 10pt; font-family: Arial; font-style: normal; font-weight: normal; fill: rgb(28, 39, 0); fill-opacity: 1;">25</text>
    <line stroke="#666" stroke-width="1" x1="1118.9" x2="1118.9" y1="233.0" y2="237.0" class="wj-tick" style="box-sizing: inherit; stroke: rgb(170, 170, 170); stroke-width: 1px;" />
    <text x="1153.6" y="254.0" fill="rgb(28,39,0)" class="wj-label" fill-opacity="1" style="box-sizing: inherit; cursor: default; font-size: 10pt; font-family: Arial; font-style: normal; font-weight: normal; fill: rgb(28, 39, 0); fill-opacity: 1;">26</text>
    <line stroke="#666" stroke-width="1" x1="1161.0" x2="1161.0" y1="233.0" y2="237.0" class="wj-tick" style="box-sizing: inherit; stroke: rgb(170, 170, 170); stroke-width: 1px;" />
    <line stroke="rgb(156,156,156)" stroke-width="1px" x1="66.4" x2="1169.6" y1="233.0" y2="233.0" class="wj-line" stroke-opacity="1" stroke-dasharray="none" style="box-sizing: inherit; stroke: rgb(156, 156, 156); stroke-opacity: 1; stroke-width: 1px; stroke-dasharray: none;" />
    <text x="573.4" y="276.0" fill="rgb(28,39,0)" class="wj-title" fill-opacity="1" style="box-sizing: inherit; cursor: default; font-size: 12pt; font-family: Arial; font-style: normal; font-weight: normal; fill: rgb(28, 39, 0); fill-opacity: 1;">Distance (km)</text>
  </g>
  <g class="wj-axis-y" style="box-sizing: inherit;" clip-path="url(#chartRect934404)">
    <line stroke="rgb(225,225,225)" stroke-width="1px" x1="66.4" x2="1169.6" y1="225.6" y2="225.6" class="wj-gridline" stroke-opacity="1" stroke-dasharray="none" style="box-sizing: inherit; opacity: 0.75; stroke: rgb(225, 225, 225); stroke-opacity: 1; stroke-width: 1px; stroke-dasharray: none;" />
    <text x="31.1" y="230.1" fill="rgb(28,39,0)" class="wj-label" fill-opacity="1" style="box-sizing: inherit; cursor: default; font-size: 10pt; font-family: Arial; font-style: normal; font-weight: normal; fill: rgb(28, 39, 0); fill-opacity: 1;">140</text>
    <line stroke="rgb(225,225,225)" stroke-width="1px" x1="66.4" x2="1169.6" y1="201.5" y2="201.5" class="wj-gridline" stroke-opacity="1" stroke-dasharray="none" style="box-sizing: inherit; opacity: 0.75; stroke: rgb(225, 225, 225); stroke-opacity: 1; stroke-width: 1px; stroke-dasharray: none;" />
    <text x="31.1" y="206.0" fill="rgb(28,39,0)" class="wj-label" fill-opacity="1" style="box-sizing: inherit; cursor: default; font-size: 10pt; font-family: Arial; font-style: normal; font-weight: normal; fill: rgb(28, 39, 0); fill-opacity: 1;">150</text>
    <line stroke="rgb(225,225,225)" stroke-width="1px" x1="66.4" x2="1169.6" y1="177.3" y2="177.3" class="wj-gridline" stroke-opacity="1" stroke-dasharray="none" style="box-sizing: inherit; opacity: 0.75; stroke: rgb(225, 225, 225); stroke-opacity: 1; stroke-width: 1px; stroke-dasharray: none;" />
    <text x="31.1" y="181.8" fill="rgb(28,39,0)" class="wj-label" fill-opacity="1" style="box-sizing: inherit; cursor: default; font-size: 10pt; font-family: Arial; font-style: normal; font-weight: normal; fill: rgb(28, 39, 0); fill-opacity: 1;">160</text>
    <line stroke="rgb(225,225,225)" stroke-width="1px" x1="66.4" x2="1169.6" y1="153.1" y2="153.1" class="wj-gridline" stroke-opacity="1" stroke-dasharray="none" style="box-sizing: inherit; opacity: 0.75; stroke: rgb(225, 225, 225); stroke-opacity: 1; stroke-width: 1px; stroke-dasharray: none;" />
    <text x="31.1" y="157.6" fill="rgb(28,39,0)" class="wj-label" fill-opacity="1" style="box-sizing: inherit; cursor: default; font-size: 10pt; font-family: Arial; font-style: normal; font-weight: normal; fill: rgb(28, 39, 0); fill-opacity: 1;">170</text>
    <line stroke="rgb(225,225,225)" stroke-width="1px" x1="66.4" x2="1169.6" y1="129.0" y2="129.0" class="wj-gridline" stroke-opacity="1" stroke-dasharray="none" style="box-sizing: inherit; opacity: 0.75; stroke: rgb(225, 225, 225); stroke-opacity: 1; stroke-width: 1px; stroke-dasharray: none;" />
    <text x="31.1" y="133.5" fill="rgb(28,39,0)" class="wj-label" fill-opacity="1" style="box-sizing: inherit; cursor: default; font-size: 10pt; font-family: Arial; font-style: normal; font-weight: normal; fill: rgb(28, 39, 0); fill-opacity: 1;">180</text>
    <line stroke="rgb(225,225,225)" stroke-width="1px" x1="66.4" x2="1169.6" y1="104.8" y2="104.8" class="wj-gridline" stroke-opacity="1" stroke-dasharray="none" style="box-sizing: inherit; opacity: 0.75; stroke: rgb(225, 225, 225); stroke-opacity: 1; stroke-width: 1px; stroke-dasharray: none;" />
    <text x="31.1" y="109.3" fill="rgb(28,39,0)" class="wj-label" fill-opacity="1" style="box-sizing: inherit; cursor: default; font-size: 10pt; font-family: Arial; font-style: normal; font-weight: normal; fill: rgb(28, 39, 0); fill-opacity: 1;">190</text>
    <line stroke="rgb(225,225,225)" stroke-width="1px" x1="66.4" x2="1169.6" y1="80.6" y2="80.6" class="wj-gridline" stroke-opacity="1" stroke-dasharray="none" style="box-sizing: inherit; opacity: 0.75; stroke: rgb(225, 225, 225); stroke-opacity: 1; stroke-width: 1px; stroke-dasharray: none;" />
    <text x="31.1" y="85.1" fill="rgb(28,39,0)" class="wj-label" fill-opacity="1" style="box-sizing: inherit; cursor: default; font-size: 10pt; font-family: Arial; font-style: normal; font-weight: normal; fill: rgb(28, 39, 0); fill-opacity: 1;">200</text>
    <line stroke="rgb(225,225,225)" stroke-width="1px" x1="66.4" x2="1169.6" y1="56.5" y2="56.5" class="wj-gridline" stroke-opacity="1" stroke-dasharray="none" style="box-sizing: inherit; opacity: 0.75; stroke: rgb(225, 225, 225); stroke-opacity: 1; stroke-width: 1px; stroke-dasharray: none;" />
    <text x="31.1" y="61.0" fill="rgb(28,39,0)" class="wj-label" fill-opacity="1" style="box-sizing: inherit; cursor: default; font-size: 10pt; font-family: Arial; font-style: normal; font-weight: normal; fill: rgb(28, 39, 0); fill-opacity: 1;">210</text>
    <g transform="rotate(-90.0,8.5,136.0)" style="box-sizing: inherit;">
      <text x="-39.0" y="141.5" fill="rgb(28,39,0)" class="wj-title" fill-opacity="1" style="box-sizing: inherit; cursor: default; font-size: 12pt; font-family: Arial; font-style: normal; font-weight: normal; fill: rgb(28, 39, 0); fill-opacity: 1;">Elevation (m)</text>
    </g>
    <line stroke="rgb(156,156,156)" stroke-width="1px" x1="66.4" x2="66.4" y1="39.0" y2="233.0" class="wj-line" stroke-opacity="0" stroke-dasharray="none" style="box-sizing: inherit; stroke: rgb(156, 156, 156); stroke-opacity: 0; stroke-width: 1px; stroke-dasharray: none;" />
  </g>
  <g class="wj-series-group" style="box-sizing: inherit;">
    <g style="box-sizing: inherit;">
      <polyline stroke="rgb(76,115,0)" stroke-width="1.542857142857143" fill="none" points="66.4,41.5 67.0,39.0 67.6,39.0 68.4,40.3 69.2,45.0 69.9,52.4 70.6,60.0 71.3,63.6 72.1,62.3 73.0,56.4 73.6,53.0 73.9,50.8 74.5,59.1 75.4,77.7 75.9,86.2 76.1,86.0 76.3,85.7 76.6,85.4 76.9,85.0 77.2,84.7 77.5,85.0 77.7,85.6 77.9,87.3 78.1,89.8 78.4,91.1 78.6,91.2 79.0,91.9 79.3,93.1 79.6,93.5 79.9,92.6 80.1,92.8 80.4,94.3 80.7,95.1 80.8,95.3 80.9,95.5 81.1,95.8 81.2,96.2 81.3,96.6 81.5,95.7 81.8,93.1 82.1,90.0 82.3,86.7 82.5,84.8 82.7,84.1 82.8,84.1 83.0,84.2 83.1,84.1 83.2,84.0 83.3,84.0 83.4,84.1 83.5,84.1 83.6,84.0 83.7,84.3 84.0,85.1 84.2,85.9 84.4,86.9 84.6,86.8 85.0,86.3 85.3,86.6 85.6,87.1 85.8,86.8 86.0,85.9 86.1,85.2 86.3,84.5 86.5,83.6 86.7,83.3 86.9,83.7 87.0,84.4 87.2,85.1 87.3,85.6 87.4,85.9 87.5,85.8 87.7,86.8 88.0,89.2 88.2,90.8 88.3,91.5 88.5,93.1 88.8,95.4 89.1,96.8 89.2,97.5 89.3,98.4 89.5,99.5 89.6,100.6 89.8,101.6 89.9,102.1 90.2,102.3 90.3,102.4 90.4,102.4 90.5,102.4 90.7,102.3 90.9,102.5 91.0,102.6 91.1,102.7 91.3,102.7 91.5,102.7 91.5,102.6 91.7,102.6 91.8,102.5 91.9,102.4 92.1,102.2 92.2,102.2 92.3,102.3 92.5,102.7 92.7,103.4 92.9,103.6 93.1,103.6 93.2,103.6 93.3,103.6 93.4,103.6 93.5,103.8 93.6,103.9 93.7,103.9 93.8,103.9 93.9,103.8 94.0,103.7 94.1,103.6 94.1,103.6 94.3,103.5 94.4,103.5 94.4,103.5 94.4,103.5 94.5,103.6 94.6,103.7 94.7,103.6 94.9,103.4 95.0,103.3 95.1,103.0 95.3,102.7 95.4,102.3 95.5,101.8 95.7,101.4 95.8,101.1 96.0,101.0 96.2,101.1 96.3,101.2 96.4,101.4 96.5,101.5 96.6,101.5 96.7,101.7 96.8,102.0 96.9,102.4 97.0,102.7 97.1,103.0 97.2,103.1 97.3,103.3 97.4,103.1 97.4,103.0 97.5,102.9 97.6,102.7 97.6,102.5 97.7,102.5 97.8,102.5 97.8,102.5 97.9,102.4 97.9,102.5 98.0,102.7 98.3,103.2 98.7,104.3 99.0,105.1 99.1,105.2 99.3,105.6 99.5,106.4 99.8,107.4 100.0,108.2 100.2,109.6 100.5,111.0 100.7,112.6 101.0,113.9 101.2,114.9 101.5,115.9 101.7,116.5 101.8,116.7 102.0,116.5 102.2,116.3 102.4,116.4 102.6,116.9 102.7,117.5 102.8,118.4 103.1,119.8 103.6,121.7 104.0,122.1 104.3,121.4 104.6,120.9 104.8,120.5 105.1,119.7 105.5,118.4 105.8,117.8 105.9,117.6 106.1,117.4 106.3,117.3 106.5,116.6 106.7,116.0 106.8,115.4 107.0,114.5 107.1,114.4 107.2,115.4 107.4,115.8 107.6,115.7 107.8,114.6 108.0,112.7 108.2,110.9 108.4,109.4 108.7,107.3 109.0,104.7 109.3,103.3 109.5,102.7 109.6,102.5 109.8,102.6 109.9,102.5 110.0,102.1 110.1,101.6 110.2,100.9 110.3,100.5 110.4,100.5 110.6,100.9 110.7,101.8 110.9,102.9 111.1,104.3 111.3,105.8 111.5,107.4 111.9,110.4 112.7,113.2 113.1,114.1 113.3,114.8 113.4,115.6 113.6,116.6 113.8,117.8 114.0,119.6 114.2,121.2 114.4,122.1 114.5,122.6 114.7,123.1 114.9,123.7 115.0,124.5 115.3,125.4 115.6,126.5 115.7,127.1 115.8,127.1 115.9,126.9 116.2,126.4 116.4,126.0 116.7,125.9 117.0,125.9 117.1,126.1 117.3,125.7 117.5,124.6 117.8,124.5 118.2,124.1 118.6,124.3 119.0,124.7 119.4,124.9 119.6,125.1 119.8,125.3 120.1,125.4 120.3,125.1 120.6,125.3 121.0,124.5 121.4,123.6 121.8,123.1 122.0,122.6 122.3,122.7 122.6,123.4 122.8,124.2 122.9,124.8 123.2,126.5 123.6,128.3 123.9,127.7 124.3,127.0 124.6,127.0 124.8,127.4 124.9,127.6 125.0,127.6 125.2,127.9 125.4,128.3 125.6,128.5 125.8,128.0 126.0,127.5 126.3,127.2 126.6,126.9 127.0,126.6 127.3,126.4 127.6,126.4 127.8,126.8 127.9,127.6 128.1,128.5 128.4,129.4 128.6,129.3 128.7,129.3 128.9,129.1 129.3,128.1 129.6,127.1 130.1,126.5 130.4,126.8 130.8,127.2 131.1,127.5 131.4,127.6 131.8,127.6 132.1,127.7 132.4,127.9 132.9,128.2 133.4,128.3 133.9,128.6 134.3,128.7 134.6,128.3 134.9,128.1 135.3,128.1 135.6,128.0 135.9,128.0 136.2,127.8 136.4,127.7 136.6,127.8 137.0,127.7 137.2,127.7 137.5,127.9 137.8,127.9 138.2,127.9 138.9,128.0 139.8,128.6 140.6,129.0 141.3,128.9 141.8,128.8 142.0,128.7 142.4,128.7 142.9,128.8 143.3,128.8 143.6,128.8 144.0,128.7 144.5,128.7 144.8,128.9 145.1,128.1 145.4,127.6 145.7,127.6 146.1,128.4 146.7,129.0 147.1,128.7 147.3,128.6 147.8,128.7 148.4,128.7 148.9,128.6 149.3,128.5 149.7,128.5 150.0,128.6 150.2,128.5 150.4,128.4 150.6,128.3 150.8,128.2 151.0,128.0 151.3,127.6 151.6,127.4 151.9,127.4 152.3,128.1 152.6,128.5 152.9,128.8 153.0,128.9 153.3,129.0 153.7,129.0 154.1,129.0 154.5,129.0 154.8,129.0 155.1,129.0 155.3,129.0 155.5,129.0 155.7,129.0 155.9,129.0 156.1,129.0 156.4,129.0 156.6,129.0 156.8,129.0 157.1,129.0 157.5,129.0 157.9,129.0 158.2,129.0 158.6,129.0 158.9,129.0 160.0,129.0 161.8,129.0 163.5,123.8 165.2,108.9 166.8,89.9 168.5,84.0 170.0,92.9 171.3,104.1 173.5,117.3 177.0,125.3 179.2,129.0 180.3,129.0 181.5,129.0 182.8,129.0 184.4,129.0 186.1,129.0 187.6,129.0 188.8,129.0 190.4,129.0 192.3,129.0 194.0,129.0 195.6,129.0 197.4,129.0 199.5,129.0 202.1,129.0 205.2,129.0 207.7,131.4 209.6,131.4 211.3,131.4 212.9,131.2 214.6,129.4 216.4,129.0 218.5,129.0 221.2,129.0 223.6,129.0 225.7,129.0 227.2,129.0 228.3,129.0 230.3,129.0 233.6,129.0 236.1,128.9 237.8,128.6 239.9,127.5 242.5,124.6 245.0,113.7 247.2,108.4 249.8,110.3 252.8,128.8 254.8,129.0 256.3,127.7 257.4,123.5 258.4,117.9 259.8,117.1 261.6,122.2 263.1,128.1 264.6,128.8 266.0,128.0 267.5,122.9 269.7,111.3 272.8,110.9 275.3,111.3 277.0,107.8 279.3,107.1 282.1,110.1 284.7,112.4 287.1,108.2 289.4,104.7 291.6,104.8 292.9,104.8 293.7,104.8 294.7,104.8 296.2,104.8 298.6,104.8 301.8,104.8 303.8,102.8 304.6,101.1 305.5,97.4 306.7,90.5 308.4,81.6 310.7,72.8 312.4,66.5 313.7,62.5 315.0,56.5 316.5,50.8 318.2,46.6 320.2,44.3 321.5,47.5 322.1,48.4 323.0,48.5 324.2,49.3 325.4,50.2 326.7,52.5 327.7,54.1 328.4,54.3 329.0,54.4 329.6,56.4 330.2,58.7 330.9,60.6 331.5,64.1 332.4,69.4 333.3,74.5 334.2,81.0 334.9,84.8 335.4,88.2 336.0,91.2 336.5,93.9 337.0,95.5 337.4,96.2 337.8,96.2 338.1,96.0 338.4,95.3 338.7,93.8 339.0,91.8 339.4,89.6 339.7,88.0 339.9,86.6 340.3,84.5 340.9,82.4 341.3,81.6 341.5,81.3 341.8,80.9 342.2,80.7 342.5,80.6 342.9,80.6 343.3,80.7 343.8,80.8 344.4,81.2 345.0,81.6 345.5,81.4 345.9,80.9 346.3,80.6 346.6,80.4 347.0,79.4 347.6,78.8 348.1,78.9 348.5,79.2 348.9,81.7 349.3,84.6 349.6,87.2 350.0,90.2 350.4,92.1 351.0,92.8 351.5,92.8 351.9,92.5 352.3,93.5 352.8,95.3 353.0,96.2 353.0,96.5 353.4,99.5 354.2,104.6 355.0,104.6 356.0,101.6 356.8,100.1 357.4,99.3 357.8,99.2 357.9,98.4 358.3,99.0 358.7,100.4 359.1,101.2 359.3,101.7 359.5,101.7 359.8,101.1 360.1,101.0 360.4,101.6 360.8,102.6 361.3,103.7 361.6,104.1 362.0,104.4 362.3,104.8 362.6,104.9 363.0,104.8 363.5,104.8 363.9,104.8 364.2,104.8 364.6,104.8 365.1,104.8 365.5,104.8 365.9,104.8 366.3,104.8 366.8,104.7 367.2,104.7 367.6,105.3 368.0,105.8 368.3,106.7 368.8,110.1 369.4,115.0 369.9,118.9 370.2,121.1 370.5,123.2 370.9,125.4 371.2,126.7 371.4,127.7 371.8,128.4 372.2,128.8 372.7,129.0 373.1,129.0 373.4,129.0 373.7,129.0 374.1,128.8 374.7,128.3 375.2,128.0 375.7,127.7 376.1,127.0 376.3,126.7 376.7,127.5 377.3,128.0 377.7,128.3 378.0,128.5 378.6,128.8 379.3,129.0 379.9,129.0 380.3,129.0 380.9,129.0 381.6,129.0 382.2,129.0 382.9,129.0 383.5,129.0 384.0,129.0 384.5,129.0 385.1,129.0 385.6,129.0 385.9,129.0 386.2,129.0 386.7,129.0 387.1,129.0 387.4,129.0 387.9,129.0 388.5,129.0 388.9,129.0 389.3,129.0 389.7,129.0 390.2,129.0 390.6,129.0 391.0,129.0 391.3,128.9 391.7,128.4 392.0,128.4 392.7,128.8 393.3,129.0 393.8,128.9 394.2,127.6 394.6,126.6 394.9,125.7 395.3,125.1 395.7,125.0 396.1,125.4 396.6,126.1 397.1,126.9 397.6,127.3 398.0,127.3 398.5,127.7 399.0,128.3 399.5,128.5 400.0,128.5 400.4,128.5 400.7,127.7 401.1,127.7 401.6,128.6 402.1,128.8 402.5,128.7 402.8,128.5 403.2,128.0 403.6,127.8 404.2,127.9 404.7,127.5 405.2,127.0 405.7,126.4 406.2,126.0 406.9,125.8 407.9,126.8 408.7,128.0 409.4,129.0 409.9,129.0 410.2,129.0 410.6,128.9 411.0,128.9 411.3,128.9 411.6,128.9 411.9,128.9 412.3,128.9 412.7,128.9 413.1,128.9 413.4,128.9 413.8,128.9 414.1,128.9 414.5,128.9 414.9,128.9 415.3,128.9 415.7,128.9 415.9,128.7 416.4,128.3 417.0,128.2 417.7,128.8 418.6,128.9 419.2,128.9 419.7,128.9 420.1,128.8 420.5,128.7 420.9,128.9 421.3,129.0 421.7,128.9 422.3,128.8 422.7,128.7 423.0,127.7 423.4,126.9 423.9,126.6 424.3,126.1 424.8,126.3 425.2,125.8 425.6,123.7 426.0,122.6 426.6,123.6 427.1,125.2 427.7,127.0 428.1,128.6 428.5,128.7 428.9,128.7 429.5,128.9 429.9,129.0 430.1,128.9 430.4,128.9 430.7,128.8 431.5,128.8 432.8,128.8 433.9,128.9 434.5,128.9 435.5,128.7 436.7,128.5 437.7,128.9 438.4,128.9 439.0,128.9 439.4,128.9 439.7,128.9 440.0,128.9 440.5,128.9 441.3,128.9 442.1,129.3 442.9,130.8 443.6,132.5 444.1,134.1 444.6,135.2 444.9,136.5 445.2,138.1 445.7,140.0 446.3,142.9 447.1,147.0 447.9,149.3 448.7,150.9 449.7,150.5 450.7,151.1 451.7,152.5 452.6,152.4 453.7,152.0 454.9,152.0 456.3,150.3 458.0,148.1 459.8,147.4 461.6,151.2 462.8,151.5 463.3,152.4 463.8,151.1 464.5,147.6 465.1,145.5 465.6,147.8 466.3,149.1 467.3,150.4 467.8,150.3 468.1,149.5 468.4,149.4 468.8,150.4 469.3,151.9 470.1,153.1 470.6,153.4 471.0,153.3 471.3,153.3 471.6,153.3 471.9,153.1 472.2,152.9 472.5,152.7 472.9,152.7 473.3,152.4 473.9,152.4 474.3,152.4 474.7,152.4 474.9,152.4 475.0,152.5 475.5,152.4 476.2,152.0 476.8,151.7 477.2,151.5 477.6,151.7 478.0,151.9 478.5,152.3 479.0,152.9 479.5,153.1 480.0,153.1 480.5,153.1 481.0,153.1 481.6,153.1 482.4,153.1 482.9,153.1 483.5,153.1 484.0,152.9 484.6,152.8 485.1,152.8 485.4,152.7 485.9,152.7 486.6,152.5 487.2,152.5 487.5,152.4 488.0,152.3 488.5,152.3 489.4,152.3 490.6,152.4 491.6,151.0 492.2,150.0 493.0,150.4 493.9,151.1 494.6,152.1 495.2,152.9 495.7,152.9 496.3,152.8 497.0,152.7 497.6,152.5 498.3,152.9 498.9,152.1 499.5,151.1 500.1,150.2 500.6,149.4 501.0,148.9 501.5,150.1 502.0,149.2 502.6,149.5 503.1,150.8 503.6,150.4 504.2,150.4 504.8,151.0 505.5,151.5 506.0,151.7 506.3,151.2 506.9,150.7 507.7,149.4 508.6,148.4 509.7,149.0 510.8,148.8 511.7,147.9 512.5,145.7 513.2,141.2 513.7,137.0 514.2,135.5 514.6,133.3 515.1,131.3 515.5,130.9 515.9,132.0 516.4,134.1 517.0,136.6 517.7,140.3 518.5,144.8 519.3,149.1 519.9,151.6 520.5,152.0 521.1,152.4 521.6,152.9 522.2,153.1 522.8,153.1 523.3,153.1 523.7,153.1 524.0,153.1 524.6,153.1 525.5,153.1 526.3,153.1 527.0,153.1 527.6,153.1 528.0,153.2 528.6,153.1 529.2,153.1 529.7,153.1 530.0,153.1 530.3,153.1 530.5,153.1 531.0,153.1 531.9,153.1 532.6,153.1 533.1,153.1 533.6,153.1 534.0,153.1 534.5,153.1 535.1,153.1 535.6,153.1 536.1,152.9 536.5,152.1 537.0,150.5 537.4,148.7 537.7,145.5 538.1,144.0 538.8,145.7 539.5,143.7 540.1,141.6 540.9,140.5 541.7,138.2 542.6,137.8 543.5,140.0 544.1,142.6 544.4,144.5 545.1,144.5 546.2,145.4 547.5,147.2 549.0,144.7 550.6,144.0 552.4,143.6 554.1,144.8 555.8,146.8 557.0,144.7 557.8,142.2 558.7,139.2 559.7,138.8 560.5,138.3 561.4,137.7 562.0,138.0 562.5,138.3 563.0,137.9 563.5,136.4 564.1,137.2 564.9,141.1 565.7,145.1 566.3,147.9 566.9,149.7 567.4,151.0 568.0,152.5 568.6,153.3 569.1,152.9 569.3,152.4 569.6,151.8 569.9,149.7 570.3,147.6 570.9,144.7 571.4,143.1 571.7,142.5 572.4,141.7 573.5,143.9 574.2,145.9 574.8,145.7 575.5,145.7 576.2,145.6 576.9,145.2 577.7,146.4 578.4,148.0 579.0,149.4 579.5,150.1 580.0,149.6 580.5,149.0 581.0,149.7 581.6,150.1 582.0,150.5 582.5,149.6 583.0,146.9 583.5,144.1 583.9,139.9 584.4,136.9 584.9,135.1 585.4,135.3 586.0,138.4 586.6,140.0 587.3,140.4 587.8,141.0 588.1,139.1 588.9,136.3 590.1,132.3 590.9,135.3 591.5,139.8 592.0,142.4 592.6,144.5 593.0,145.1 593.3,144.4 593.7,144.1 594.2,144.7 594.6,145.9 595.0,147.2 595.4,147.6 596.0,146.1 596.6,145.1 597.2,145.9 597.7,146.1 598.1,146.5 598.5,147.3 598.8,148.3 599.2,149.6 599.6,150.6 600.0,151.5 600.5,152.4 601.0,153.0 601.5,153.1 601.9,151.6 602.4,149.6 602.9,146.2 603.4,143.1 603.7,142.4 604.0,144.0 604.5,146.6 605.1,147.5 605.6,147.5 606.1,145.8 606.5,145.5 607.0,146.8 607.4,146.4 607.9,145.6 608.2,145.2 608.5,144.7 608.8,145.2 609.2,146.7 609.7,148.3 610.5,150.4 611.0,152.1 611.4,151.9 611.9,151.5 612.6,150.5 613.3,150.9 614.0,151.0 614.7,150.9 615.3,150.4 616.5,149.7 618.3,150.2 619.4,149.2 619.9,150.6 620.5,150.5 621.2,150.0 621.8,149.7 622.3,150.7 623.0,151.3 623.8,151.6 624.5,152.3 625.2,152.4 625.8,150.0 626.4,148.9 626.9,147.3 627.2,147.9 627.8,150.8 628.6,157.7 629.2,163.1 629.5,164.6 629.9,165.0 630.5,165.2 631.0,165.7 631.5,165.1 631.9,164.4 632.4,163.9 632.9,164.3 633.2,164.9 633.6,163.1 634.1,159.3 634.9,160.2 635.9,163.3 636.7,164.8 637.2,164.8 638.0,165.9 639.0,169.7 639.7,171.2 640.2,171.1 640.7,171.5 641.5,168.6 642.0,166.8 642.4,167.4 642.9,168.7 643.5,171.9 644.1,170.7 644.8,167.7 645.4,165.4 646.0,164.8 646.5,164.7 647.1,162.6 647.7,158.8 648.3,156.0 649.2,153.8 650.2,162.3 651.3,170.7 652.5,173.1 653.4,171.9 654.2,170.6 654.9,170.5 655.4,170.3 655.9,168.6 656.4,165.5 657.0,162.9 657.7,162.0 658.3,161.4 658.8,161.5 659.1,161.0 659.4,159.6 659.6,158.5 659.9,157.4 660.5,157.3 661.3,158.7 661.8,160.8 662.2,161.4 662.5,161.2 662.7,159.7 663.3,153.4 664.2,141.8 664.9,136.9 665.3,135.5 665.9,134.6 666.6,134.6 667.3,136.3 668.0,137.4 668.7,135.7 669.6,133.5 670.4,132.0 671.3,131.0 672.1,130.9 672.8,131.7 673.5,131.9 674.1,132.5 674.9,131.0 675.8,128.9 676.6,128.9 677.1,129.8 677.7,131.1 678.3,132.3 679.3,134.5 680.6,137.5 681.8,139.6 682.8,141.0 683.5,142.2 684.1,142.6 684.7,143.0 685.2,143.1 686.1,142.3 687.4,142.0 688.4,142.6 689.2,143.7 690.1,144.5 691.1,145.5 692.1,146.4 693.1,146.1 694.1,145.6 695.2,145.1 696.2,144.3 697.0,142.3 697.7,139.6 698.2,137.8 698.8,136.7 699.5,135.7 700.0,134.9 700.3,134.4 700.6,134.0 700.7,133.6 700.8,133.3 701.1,133.0 701.3,132.7 701.6,132.4 701.8,131.9 701.9,131.4 702.3,130.8 702.8,130.3 703.3,130.1 703.6,130.3 704.0,130.6 704.3,131.1 704.6,131.3 705.2,131.8 705.6,132.2 705.9,132.7 706.3,133.2 706.8,133.7 707.3,134.2 708.0,134.4 708.6,134.6 709.1,135.2 709.5,135.8 709.9,135.9 710.2,136.3 710.5,137.3 711.1,137.9 711.8,138.5 712.5,139.3 713.1,139.5 713.8,139.9 714.5,139.4 715.1,138.3 715.6,137.4 716.0,136.4 716.1,135.9 716.2,135.6 716.3,135.3 716.3,135.1 716.5,135.0 716.7,134.8 717.1,134.4 717.4,134.0 717.6,133.6 717.9,132.8 718.4,131.7 719.1,130.5 719.9,129.6 720.8,129.2 721.8,128.9 723.1,128.9 724.8,129.1 726.1,131.9 726.9,136.2 727.7,141.2 728.4,146.9 729.0,152.2 729.6,157.3 729.9,160.9 730.2,161.7 730.5,163.8 731.0,166.9 731.6,170.2 732.5,174.1 733.6,177.2 734.7,177.3 735.5,177.3 736.2,177.3 736.9,177.3 737.7,177.3 738.4,177.3 739.2,177.3 740.1,177.3 741.1,176.8 741.9,175.6 742.5,173.8 743.1,171.3 743.8,168.8 744.7,163.3 746.0,157.5 747.3,153.9 748.5,153.1 749.7,153.1 750.7,153.1 751.8,153.1 752.9,153.1 753.9,153.1 754.8,153.1 755.8,153.1 756.7,153.1 757.5,153.1 758.2,153.1 759.3,153.1 760.9,153.2 762.0,153.2 762.7,153.2 763.6,153.2 764.7,153.3 765.6,153.5 766.4,153.4 767.1,153.3 767.7,153.3 768.5,153.5 769.4,153.9 770.3,154.4 771.1,155.2 772.1,155.4 773.1,154.9 774.1,154.7 775.0,155.2 776.3,156.0 777.9,157.1 779.1,157.6 779.9,157.4 780.7,157.1 781.6,156.2 782.5,154.9 783.5,153.1 784.5,153.1 785.4,153.1 786.3,153.1 787.4,153.1 788.1,153.1 788.5,153.1 788.9,153.1 789.4,153.1 790.1,153.1 791.1,153.1 792.0,153.1 792.8,153.1 793.5,153.1 794.1,153.1 794.6,153.1 795.1,153.1 795.7,153.1 796.3,153.1 797.2,153.1 798.3,152.9 798.9,152.7 799.3,152.7 799.8,152.9 800.6,152.8 801.4,153.1 802.3,153.0 803.3,153.1 804.5,153.1 805.3,153.1 805.9,153.1 806.4,153.1 806.8,153.1 807.4,153.1 808.3,153.1 809.4,153.1 810.8,153.1 811.9,153.1 812.8,153.1 813.4,153.1 813.7,153.1 814.3,153.1 815.2,153.1 816.0,153.1 816.9,153.1 817.9,153.1 819.1,153.1 819.8,153.1 820.2,153.1 820.9,153.1 822.1,153.1 823.3,153.1 824.4,153.1 825.4,153.9 826.5,157.3 827.4,162.8 828.2,167.4 829.0,170.4 829.8,172.9 830.9,175.8 832.3,176.4 833.5,176.8 834.6,177.1 835.4,176.9 836.1,176.4 836.6,174.9 837.1,173.6 837.8,172.1 838.8,168.9 839.5,168.5 840.1,171.3 840.9,169.6 842.1,165.9 843.3,163.8 844.5,162.3 846.3,160.8 848.6,162.9 850.2,167.0 851.1,167.4 852.0,166.2 852.7,163.2 853.8,158.5 855.2,151.4 856.4,147.3 857.5,145.7 858.5,145.9 859.4,148.0 860.3,150.6 861.2,151.6 861.9,150.4 862.5,147.6 864.6,137.1 868.3,116.8 870.5,136.6 871.3,140.4 871.9,141.2 872.6,138.0 873.1,141.0 873.7,145.7 874.3,150.8 874.9,154.2 876.0,157.0 877.6,157.3 878.5,158.7 878.8,159.2 879.0,160.4 879.3,162.2 879.4,162.8 879.7,162.2 880.0,161.8 880.3,161.3 880.5,161.6 880.9,162.7 881.2,164.2 881.5,166.3 881.8,168.2 882.2,169.8 882.4,171.0 882.6,171.7 882.9,172.3 883.4,173.2 883.8,174.4 884.3,174.9 884.8,174.2 885.3,173.5 885.6,173.7 885.8,175.0 886.0,175.1 886.3,174.2 886.7,173.2 887.1,171.8 887.6,170.3 888.0,169.1 888.3,168.2 888.5,167.1 888.7,166.3 889.0,165.8 889.4,165.9 890.0,166.2 890.6,166.1 891.1,165.4 891.7,164.9 892.4,164.2 892.8,163.6 893.0,163.4 893.2,163.2 893.6,162.5 894.1,162.2 894.8,162.7 895.8,163.7 896.9,162.4 897.9,162.9 898.8,166.2 899.7,169.8 900.5,173.6 901.4,175.5 902.3,175.2 903.0,177.2 903.7,176.2 904.3,175.7 905.0,173.4 905.5,172.9 905.9,173.8 906.3,174.3 906.7,174.5 907.1,174.5 907.5,173.9 908.1,174.1 908.9,174.9 909.5,175.7 909.9,175.6 910.3,176.1 910.8,176.3 911.4,176.8 911.9,176.0 912.8,172.0 913.9,163.9 915.0,158.0 916.3,161.8 917.7,162.7 919.2,160.1 920.4,159.8 921.2,165.6 922.3,169.8 923.8,167.8 925.6,167.5 927.8,172.4 929.2,171.4 930.0,166.0 930.6,162.3 931.0,159.4 931.6,155.8 932.2,151.6 932.8,145.7 933.4,137.9 934.0,130.6 934.4,124.8 934.9,119.2 935.4,114.3 935.8,111.5 936.1,110.1 936.5,108.0 936.9,106.0 937.2,104.8 937.4,104.4 937.8,103.6 938.6,102.4 939.3,102.0 940.0,102.7 940.5,103.3 940.9,103.7 941.2,103.4 941.7,102.4 942.3,103.3 943.0,106.4 943.6,109.1 944.1,110.8 944.6,111.5 945.0,111.6 945.4,111.1 945.9,110.3 946.4,110.2 947.0,111.4 947.6,111.9 948.2,111.6 949.1,111.6 950.2,111.6 951.1,111.5 951.8,111.2 952.3,110.5 952.6,109.0 953.0,108.9 953.6,110.1 954.1,110.8 954.6,111.3 955.1,111.3 955.4,110.9 955.9,110.7 956.5,110.6 957.0,110.8 957.4,110.7 957.8,110.9 958.3,110.1 958.7,109.0 959.0,107.9 959.3,108.5 959.7,110.4 960.2,111.4 960.8,112.0 961.2,112.9 961.6,113.6 962.1,114.0 962.5,114.1 962.9,115.4 963.2,117.8 963.6,119.4 964.3,120.5 965.0,121.5 965.5,122.2 966.2,121.3 967.0,119.4 967.7,118.3 968.3,116.7 969.0,115.2 969.8,113.8 971.2,109.8 973.3,106.9 974.9,105.8 976.1,109.1 977.3,112.7 978.6,115.7 980.1,118.3 981.9,122.0 983.0,124.5 983.4,124.3 983.8,125.3 984.3,126.5 984.9,127.1 985.8,124.1 986.6,121.4 987.4,120.6 988.0,120.1 988.5,119.2 989.1,117.8 989.8,115.8 990.5,115.6 991.2,116.3 991.8,116.5 992.4,116.8 993.1,118.4 993.9,120.1 994.6,121.5 995.1,122.2 996.0,121.1 997.1,122.1 997.8,122.5 998.1,122.4 999.0,123.0 1000.4,124.3 1001.5,125.2 1002.4,125.7 1003.1,125.4 1003.6,124.6 1004.5,123.3 1005.8,121.0 1007.0,119.3 1008.0,119.1 1008.9,120.5 1009.7,122.8 1010.5,125.3 1011.6,127.0 1012.3,127.7 1012.6,128.0 1013.5,127.0 1015.0,125.3 1016.1,123.7 1017.0,123.0 1017.7,123.1 1018.2,123.4 1018.8,123.5 1019.3,123.5 1020.0,124.4 1020.9,126.2 1021.9,126.8 1023.0,128.0 1024.2,129.2 1025.3,129.6 1026.1,129.7 1026.6,129.6 1027.2,129.5 1028.0,129.3 1028.6,129.2 1028.9,129.1 1029.3,129.1 1029.7,129.3 1030.0,129.3 1030.3,129.2 1030.8,129.0 1031.6,128.8 1032.1,128.5 1032.5,128.5 1033.1,128.9 1033.7,130.0 1034.3,131.1 1034.9,132.5 1035.7,134.1 1036.6,135.3 1037.3,136.0 1037.8,136.6 1038.4,137.8 1039.1,139.3 1039.6,140.7 1040.1,141.8 1040.8,142.6 1041.9,144.0 1042.5,145.2 1042.7,145.8 1043.2,146.4 1044.0,147.9 1044.5,149.2 1044.9,149.7 1045.5,149.7 1046.3,150.1 1046.9,150.2 1047.5,150.0 1048.1,149.3 1049.0,148.4 1049.8,147.9 1050.7,147.1 1051.5,146.5 1052.3,147.0 1052.9,147.4 1053.5,147.5 1054.2,147.3 1055.1,146.8 1055.7,146.4 1056.3,146.6 1056.7,149.3 1057.1,154.2 1057.6,156.6 1058.2,156.5 1058.9,159.7 1059.7,167.6 1060.5,173.5 1061.1,177.8 1061.9,181.5 1062.7,184.6 1063.5,185.9 1064.2,184.9 1065.2,182.4 1066.2,180.6 1067.3,180.3 1068.2,182.0 1068.9,187.4 1069.4,192.3 1070.1,199.7 1071.3,214.1 1072.2,220.5 1072.8,222.9 1073.4,223.6 1074.1,222.8 1074.7,223.8 1075.4,225.5 1076.2,230.4 1077.2,233.0 1078.4,230.2 1079.8,219.1 1080.7,213.3 1081.1,211.3 1081.8,206.7 1082.8,197.4 1083.9,190.0 1085.2,183.2 1086.0,181.5 1086.4,186.7 1087.0,194.6 1087.8,204.6 1088.4,212.4 1088.7,218.8 1089.1,222.5 1089.6,224.1 1090.6,222.8 1091.9,215.3 1092.8,208.2 1093.2,202.3 1093.7,197.2 1094.2,193.6 1094.6,193.2 1094.7,196.4 1095.0,199.0 1095.4,200.6 1095.7,199.1 1096.0,195.8 1096.5,195.0 1097.2,194.7 1097.8,193.5 1098.1,192.1 1098.5,190.5 1098.8,189.0 1099.1,185.3 1099.5,179.4 1100.1,172.9 1100.8,167.3 1101.5,163.8 1102.2,162.4 1102.9,161.7 1103.5,161.8 1104.1,162.0 1104.7,162.8 1105.2,164.5 1105.6,167.0 1106.1,171.0 1106.8,176.4 1107.4,182.1 1107.9,186.4 1108.5,188.4 1109.1,188.5 1109.8,186.5 1110.5,182.7 1111.1,179.0 1111.6,175.8 1112.2,172.6 1112.9,169.8 1113.4,169.5 1114.0,170.9 1114.5,171.9 1114.9,172.7 1115.4,173.8 1115.8,175.5 1116.3,176.8 1116.7,178.9 1117.1,180.4 1117.4,181.2 1117.9,180.6 1118.5,178.7 1119.1,176.4 1119.6,173.3 1120.1,170.1 1120.7,166.7 1121.1,165.5 1121.4,165.3 1121.8,168.5 1122.2,175.3 1122.6,179.8 1123.0,181.8 1123.3,183.6 1123.5,185.0 1123.9,187.0 1124.4,189.4 1124.9,192.3 1125.2,196.9 1125.6,203.2 1126.1,209.9 1126.7,208.7 1127.5,200.6 1128.1,195.9 1128.8,193.8 1129.4,193.9 1129.9,196.2 1130.5,196.0 1131.2,191.7 1131.9,188.2 1132.4,185.8 1132.8,184.4 1133.1,184.0 1133.3,182.1 1133.6,179.0 1133.9,176.7 1134.4,175.0 1134.9,172.0 1135.5,167.3 1136.1,162.6 1136.6,158.6 1137.2,153.9 1137.9,148.4 1138.5,143.1 1139.2,137.5 1139.9,132.5 1140.6,128.0 1141.3,124.9 1141.9,122.7 1142.4,121.7 1142.9,121.7 1143.4,121.7 1144.0,121.7 1144.7,121.7 1145.5,121.6 1146.3,121.6 1147.1,122.4 1147.9,123.7 1148.7,124.9 1149.5,126.6 1150.1,127.8 1150.7,128.5 1151.4,128.9 1152.1,128.7 1152.9,128.1 1153.7,127.1 1154.4,126.4 1155.0,126.4 1155.4,127.3 1155.8,128.3 1156.1,129.2 1156.6,130.0 1157.0,131.1 1157.3,131.7 1157.6,132.0 1158.1,133.3 1158.8,135.2 1159.2,136.3 1159.3,136.8 1159.5,137.4 1159.7,138.2 1160.0,139.0 1160.7,140.2 1161.3,141.6 1161.7,142.8 1162.1,145.4 1162.5,147.8 1162.8,149.6 1163.1,151.0 1163.4,153.1 1163.9,155.0 1164.2,155.8 1164.5,156.1 1164.7,155.7 1165.0,154.9 1165.3,154.0 1165.4,153.2 1165.7,154.2 1166.0,157.3 1166.3,159.9 1166.6,162.0 1167.2,170.0 1168.2,190.1 1168.9,218.0 1169.6,232.9 " clip-path="url(#plotRect443923)" style="box-sizing: inherit; stroke-width: 1.54286;" stroke-opacity="1" />
    </g>
  </g>
  <clipPath id="plotRect443923" style="box-sizing: inherit;">
    <rect x="65" y="38" width="1105" height="196" style="box-sizing: inherit;" />
  </clipPath>
  <clipPath id="plotRect712646" style="box-sizing: inherit;">
    <rect x="-1" y="-1" width="1105" height="196" style="box-sizing: inherit;" />
  </clipPath>
  <g class="wj-chart-annotationlayer" transform="translate(66.359375, 39)" style="box-sizing: inherit;" clip-path="url(#plotRect712646)" />
</svg>